<?xml version="1.0" encoding="UTF-8" standalone="no"?>
<!DOCTYPE svg PUBLIC "-//W3C//DTD SVG 1.1//EN"
 "http://www.w3.org/Graphics/SVG/1.1/DTD/svg11.dtd">
<!-- Generated by graphviz version 2.40.1 (20161225.0304)
 -->
<!-- Title: %3 Pages: 1 -->
<svg width="1580pt" height="690pt"
 viewBox="0.00 0.00 1580.27 689.81" xmlns="http://www.w3.org/2000/svg" xmlns:xlink="http://www.w3.org/1999/xlink">
<g id="graph0" class="graph" transform="scale(1 1) rotate(0) translate(4 685.8145)">
<title>%3</title>
<polygon fill="#ffffff" stroke="transparent" points="-4,4 -4,-685.8145 1576.2695,-685.8145 1576.2695,4 -4,4"/>
<g id="clust3" class="cluster">
<title>cluster_ExprGraph</title>
<polygon fill="#d3d3d3" stroke="#d3d3d3" points="400.1348,-67.168 400.1348,-673.8145 1171.1348,-673.8145 1171.1348,-67.168 400.1348,-67.168"/>
<text text-anchor="middle" x="785.6348" y="-658.6145" font-family="Times,serif" font-size="14.00" fill="#000000">ExprGraph</text>
</g>
<!-- Node_0xc0000a8ee0 -->
<g id="0xc0000a8ee0" class="node">
<title>Node_0xc0000a8ee0</title>
<path fill="#ffff00" stroke="#000000" d="M860,-.8638C860,-.8638 924.2695,-.8638 924.2695,-.8638 930.2695,-.8638 936.2695,-6.8638 936.2695,-12.8638 936.2695,-12.8638 936.2695,-44.3042 936.2695,-44.3042 936.2695,-50.3042 930.2695,-56.3042 924.2695,-56.3042 924.2695,-56.3042 860,-56.3042 860,-56.3042 854,-56.3042 848,-50.3042 848,-44.3042 848,-44.3042 848,-12.8638 848,-12.8638 848,-6.8638 854,-.8638 860,-.8638"/>
<text text-anchor="middle" x="868.0278" y="-44.3042" font-family="Times,serif" font-size="10.00" fill="#000000">xₜ</text>
<polyline fill="none" stroke="#000000" points="888.0557,-36.8638 888.0557,-56.3042 "/>
<text text-anchor="middle" x="912.0557" y="-43.584" font-family="Times,serif" font-size="10.00" fill="#000000">0x0</text>
<polyline fill="none" stroke="#000000" points="848,-36.8638 936.2695,-36.8638 "/>
<text text-anchor="middle" x="862.1108" y="-24.8638" font-family="Times,serif" font-size="10.00" fill="#000000">Op</text>
<polyline fill="none" stroke="#000000" points="876.2217,-18.8638 876.2217,-36.8638 "/>
<text text-anchor="middle" x="906.2456" y="-24.8638" font-family="Times,serif" font-size="10.00" fill="#000000">%!s(&lt;nil&gt;)</text>
<polyline fill="none" stroke="#000000" points="848,-18.8638 936.2695,-18.8638 "/>
<text text-anchor="middle" x="871.7192" y="-6.8638" font-family="Times,serif" font-size="10.00" fill="#000000">Shape</text>
<polyline fill="none" stroke="#000000" points="895.4385,-.8638 895.4385,-18.8638 "/>
<text text-anchor="middle" x="915.7686" y="-6.8638" font-family="Times,serif" font-size="10.00" fill="#000000">(74)</text>
</g>
<!-- Node_0xc0000a8fc0 -->
<g id="0xc0000a8fc0" class="node">
<title>Node_0xc0000a8fc0</title>
<path fill="#ffff00" stroke="#000000" d="M1072,-.8638C1072,-.8638 1136.2695,-.8638 1136.2695,-.8638 1142.2695,-.8638 1148.2695,-6.8638 1148.2695,-12.8638 1148.2695,-12.8638 1148.2695,-44.3042 1148.2695,-44.3042 1148.2695,-50.3042 1142.2695,-56.3042 1136.2695,-56.3042 1136.2695,-56.3042 1072,-56.3042 1072,-56.3042 1066,-56.3042 1060,-50.3042 1060,-44.3042 1060,-44.3042 1060,-12.8638 1060,-12.8638 1060,-6.8638 1066,-.8638 1072,-.8638"/>
<text text-anchor="middle" x="1081.5942" y="-44.3042" font-family="Times,serif" font-size="10.00" fill="#000000">hₜ₋₁</text>
<polyline fill="none" stroke="#000000" points="1103.1885,-36.8638 1103.1885,-56.3042 "/>
<text text-anchor="middle" x="1125.6885" y="-43.584" font-family="Times,serif" font-size="10.00" fill="#000000">0x1</text>
<polyline fill="none" stroke="#000000" points="1060,-36.8638 1148.2695,-36.8638 "/>
<text text-anchor="middle" x="1074.1108" y="-24.8638" font-family="Times,serif" font-size="10.00" fill="#000000">Op</text>
<polyline fill="none" stroke="#000000" points="1088.2217,-18.8638 1088.2217,-36.8638 "/>
<text text-anchor="middle" x="1118.2456" y="-24.8638" font-family="Times,serif" font-size="10.00" fill="#000000">%!s(&lt;nil&gt;)</text>
<polyline fill="none" stroke="#000000" points="1060,-18.8638 1148.2695,-18.8638 "/>
<text text-anchor="middle" x="1085.2192" y="-6.8638" font-family="Times,serif" font-size="10.00" fill="#000000">Shape</text>
<polyline fill="none" stroke="#000000" points="1110.4385,-.8638 1110.4385,-18.8638 "/>
<text text-anchor="middle" x="1129.2686" y="-6.8638" font-family="Times,serif" font-size="10.00" fill="#000000">(5)</text>
</g>
<!-- Node_0xc0000a90a0 -->
<g id="0xc0000a90a0" class="node">
<title>Node_0xc0000a90a0</title>
<path fill="#ffff00" stroke="#000000" d="M12,-.8638C12,-.8638 76.2695,-.8638 76.2695,-.8638 82.2695,-.8638 88.2695,-6.8638 88.2695,-12.8638 88.2695,-12.8638 88.2695,-44.3042 88.2695,-44.3042 88.2695,-50.3042 82.2695,-56.3042 76.2695,-56.3042 76.2695,-56.3042 12,-56.3042 12,-56.3042 6,-56.3042 0,-50.3042 0,-44.3042 0,-44.3042 0,-12.8638 0,-12.8638 0,-6.8638 6,-.8638 12,-.8638"/>
<text text-anchor="middle" x="21.3135" y="-44.3042" font-family="Times,serif" font-size="10.00" fill="#000000">cₜ₋₁</text>
<polyline fill="none" stroke="#000000" points="42.627,-36.8638 42.627,-56.3042 "/>
<text text-anchor="middle" x="65.127" y="-43.584" font-family="Times,serif" font-size="10.00" fill="#000000">0x2</text>
<polyline fill="none" stroke="#000000" points="0,-36.8638 88.2695,-36.8638 "/>
<text text-anchor="middle" x="14.1108" y="-24.8638" font-family="Times,serif" font-size="10.00" fill="#000000">Op</text>
<polyline fill="none" stroke="#000000" points="28.2217,-18.8638 28.2217,-36.8638 "/>
<text text-anchor="middle" x="58.2456" y="-24.8638" font-family="Times,serif" font-size="10.00" fill="#000000">%!s(&lt;nil&gt;)</text>
<polyline fill="none" stroke="#000000" points="0,-18.8638 88.2695,-18.8638 "/>
<text text-anchor="middle" x="25.2192" y="-6.8638" font-family="Times,serif" font-size="10.00" fill="#000000">Shape</text>
<polyline fill="none" stroke="#000000" points="50.4385,-.8638 50.4385,-18.8638 "/>
<text text-anchor="middle" x="69.2686" y="-6.8638" font-family="Times,serif" font-size="10.00" fill="#000000">(5)</text>
</g>
<!-- Node_0xc0000a9180 -->
<g id="0xc0000a9180" class="node">
<title>Node_0xc0000a9180</title>
<path fill="#ffff00" stroke="#000000" d="M436,-1.584C436,-1.584 500.2695,-1.584 500.2695,-1.584 506.2695,-1.584 512.2695,-7.584 512.2695,-13.584 512.2695,-13.584 512.2695,-43.584 512.2695,-43.584 512.2695,-49.584 506.2695,-55.584 500.2695,-55.584 500.2695,-55.584 436,-55.584 436,-55.584 430,-55.584 424,-49.584 424,-43.584 424,-43.584 424,-13.584 424,-13.584 424,-7.584 430,-1.584 436,-1.584"/>
<text text-anchor="middle" x="445.3843" y="-43.584" font-family="Times,serif" font-size="10.00" fill="#000000">Wf</text>
<polyline fill="none" stroke="#000000" points="466.7686,-37.584 466.7686,-55.584 "/>
<text text-anchor="middle" x="489.2686" y="-43.584" font-family="Times,serif" font-size="10.00" fill="#000000">0x3</text>
<polyline fill="none" stroke="#000000" points="424,-37.584 512.2695,-37.584 "/>
<text text-anchor="middle" x="438.1108" y="-25.584" font-family="Times,serif" font-size="10.00" fill="#000000">Op</text>
<polyline fill="none" stroke="#000000" points="452.2217,-19.584 452.2217,-37.584 "/>
<text text-anchor="middle" x="482.2456" y="-25.584" font-family="Times,serif" font-size="10.00" fill="#000000">%!s(&lt;nil&gt;)</text>
<polyline fill="none" stroke="#000000" points="424,-19.584 512.2695,-19.584 "/>
<text text-anchor="middle" x="445.2192" y="-7.584" font-family="Times,serif" font-size="10.00" fill="#000000">Shape</text>
<polyline fill="none" stroke="#000000" points="466.4385,-1.584 466.4385,-19.584 "/>
<text text-anchor="middle" x="489.2686" y="-7.584" font-family="Times,serif" font-size="10.00" fill="#000000">(5, 74)</text>
</g>
<!-- Node_0xc0000a9260 -->
<g id="0xc0000a9260" class="node">
<title>Node_0xc0000a9260</title>
<path fill="#ffff00" stroke="#000000" d="M966,-.5C966,-.5 1030.2695,-.5 1030.2695,-.5 1036.2695,-.5 1042.2695,-6.5 1042.2695,-12.5 1042.2695,-12.5 1042.2695,-44.668 1042.2695,-44.668 1042.2695,-50.668 1036.2695,-56.668 1030.2695,-56.668 1030.2695,-56.668 966,-56.668 966,-56.668 960,-56.668 954,-50.668 954,-44.668 954,-44.668 954,-12.5 954,-12.5 954,-6.5 960,-.5 966,-.5"/>
<text text-anchor="middle" x="974.6836" y="-44.668" font-family="Times,serif" font-size="10.00" fill="#000000">Wᵢ</text>
<polyline fill="none" stroke="#000000" points="995.3672,-36.5 995.3672,-56.668 "/>
<text text-anchor="middle" x="1018.3672" y="-43.584" font-family="Times,serif" font-size="10.00" fill="#000000">0x4</text>
<polyline fill="none" stroke="#000000" points="954,-36.5 1042.2695,-36.5 "/>
<text text-anchor="middle" x="968.1108" y="-24.5" font-family="Times,serif" font-size="10.00" fill="#000000">Op</text>
<polyline fill="none" stroke="#000000" points="982.2217,-18.5 982.2217,-36.5 "/>
<text text-anchor="middle" x="1012.2456" y="-24.5" font-family="Times,serif" font-size="10.00" fill="#000000">%!s(&lt;nil&gt;)</text>
<polyline fill="none" stroke="#000000" points="954,-18.5 1042.2695,-18.5 "/>
<text text-anchor="middle" x="975.2192" y="-6.5" font-family="Times,serif" font-size="10.00" fill="#000000">Shape</text>
<polyline fill="none" stroke="#000000" points="996.4385,-.5 996.4385,-18.5 "/>
<text text-anchor="middle" x="1019.2686" y="-6.5" font-family="Times,serif" font-size="10.00" fill="#000000">(5, 74)</text>
</g>
<!-- Node_0xc0000a9340 -->
<g id="0xc0000a9340" class="node">
<title>Node_0xc0000a9340</title>
<path fill="#ffff00" stroke="#000000" d="M1284,-.5017C1284,-.5017 1348.2695,-.5017 1348.2695,-.5017 1354.2695,-.5017 1360.2695,-6.5017 1360.2695,-12.5017 1360.2695,-12.5017 1360.2695,-44.6663 1360.2695,-44.6663 1360.2695,-50.6663 1354.2695,-56.6663 1348.2695,-56.6663 1348.2695,-56.6663 1284,-56.6663 1284,-56.6663 1278,-56.6663 1272,-50.6663 1272,-44.6663 1272,-44.6663 1272,-12.5017 1272,-12.5017 1272,-6.5017 1278,-.5017 1284,-.5017"/>
<text text-anchor="middle" x="1293.1318" y="-44.6663" font-family="Times,serif" font-size="10.00" fill="#000000">Wₒ</text>
<polyline fill="none" stroke="#000000" points="1314.2637,-36.5017 1314.2637,-56.6663 "/>
<text text-anchor="middle" x="1337.2637" y="-43.584" font-family="Times,serif" font-size="10.00" fill="#000000">0x5</text>
<polyline fill="none" stroke="#000000" points="1272,-36.5017 1360.2695,-36.5017 "/>
<text text-anchor="middle" x="1286.1108" y="-24.5017" font-family="Times,serif" font-size="10.00" fill="#000000">Op</text>
<polyline fill="none" stroke="#000000" points="1300.2217,-18.5017 1300.2217,-36.5017 "/>
<text text-anchor="middle" x="1330.2456" y="-24.5017" font-family="Times,serif" font-size="10.00" fill="#000000">%!s(&lt;nil&gt;)</text>
<polyline fill="none" stroke="#000000" points="1272,-18.5017 1360.2695,-18.5017 "/>
<text text-anchor="middle" x="1293.2192" y="-6.5017" font-family="Times,serif" font-size="10.00" fill="#000000">Shape</text>
<polyline fill="none" stroke="#000000" points="1314.4385,-.5017 1314.4385,-18.5017 "/>
<text text-anchor="middle" x="1337.2686" y="-6.5017" font-family="Times,serif" font-size="10.00" fill="#000000">(5, 74)</text>
</g>
<!-- Node_0xc0000a9420 -->
<g id="0xc0000a9420" class="node">
<title>Node_0xc0000a9420</title>
<path fill="#ffff00" stroke="#000000" d="M648,-1.584C648,-1.584 712.2695,-1.584 712.2695,-1.584 718.2695,-1.584 724.2695,-7.584 724.2695,-13.584 724.2695,-13.584 724.2695,-43.584 724.2695,-43.584 724.2695,-49.584 718.2695,-55.584 712.2695,-55.584 712.2695,-55.584 648,-55.584 648,-55.584 642,-55.584 636,-49.584 636,-43.584 636,-43.584 636,-13.584 636,-13.584 636,-7.584 642,-1.584 648,-1.584"/>
<text text-anchor="middle" x="657.4385" y="-43.584" font-family="Times,serif" font-size="10.00" fill="#000000">Wc</text>
<polyline fill="none" stroke="#000000" points="678.877,-37.584 678.877,-55.584 "/>
<text text-anchor="middle" x="701.377" y="-43.584" font-family="Times,serif" font-size="10.00" fill="#000000">0x6</text>
<polyline fill="none" stroke="#000000" points="636,-37.584 724.2695,-37.584 "/>
<text text-anchor="middle" x="650.1108" y="-25.584" font-family="Times,serif" font-size="10.00" fill="#000000">Op</text>
<polyline fill="none" stroke="#000000" points="664.2217,-19.584 664.2217,-37.584 "/>
<text text-anchor="middle" x="694.2456" y="-25.584" font-family="Times,serif" font-size="10.00" fill="#000000">%!s(&lt;nil&gt;)</text>
<polyline fill="none" stroke="#000000" points="636,-19.584 724.2695,-19.584 "/>
<text text-anchor="middle" x="657.2192" y="-7.584" font-family="Times,serif" font-size="10.00" fill="#000000">Shape</text>
<polyline fill="none" stroke="#000000" points="678.4385,-1.584 678.4385,-19.584 "/>
<text text-anchor="middle" x="701.2686" y="-7.584" font-family="Times,serif" font-size="10.00" fill="#000000">(5, 74)</text>
</g>
<!-- Node_0xc0000a9500 -->
<g id="0xc0000a9500" class="node">
<title>Node_0xc0000a9500</title>
<path fill="#ffff00" stroke="#000000" d="M542,-1.584C542,-1.584 606.2695,-1.584 606.2695,-1.584 612.2695,-1.584 618.2695,-7.584 618.2695,-13.584 618.2695,-13.584 618.2695,-43.584 618.2695,-43.584 618.2695,-49.584 612.2695,-55.584 606.2695,-55.584 606.2695,-55.584 542,-55.584 542,-55.584 536,-55.584 530,-49.584 530,-43.584 530,-43.584 530,-13.584 530,-13.584 530,-7.584 536,-1.584 542,-1.584"/>
<text text-anchor="middle" x="550.7759" y="-43.584" font-family="Times,serif" font-size="10.00" fill="#000000">Uf</text>
<polyline fill="none" stroke="#000000" points="571.5518,-37.584 571.5518,-55.584 "/>
<text text-anchor="middle" x="594.5518" y="-43.584" font-family="Times,serif" font-size="10.00" fill="#000000">0x7</text>
<polyline fill="none" stroke="#000000" points="530,-37.584 618.2695,-37.584 "/>
<text text-anchor="middle" x="544.1108" y="-25.584" font-family="Times,serif" font-size="10.00" fill="#000000">Op</text>
<polyline fill="none" stroke="#000000" points="558.2217,-19.584 558.2217,-37.584 "/>
<text text-anchor="middle" x="588.2456" y="-25.584" font-family="Times,serif" font-size="10.00" fill="#000000">%!s(&lt;nil&gt;)</text>
<polyline fill="none" stroke="#000000" points="530,-19.584 618.2695,-19.584 "/>
<text text-anchor="middle" x="552.7192" y="-7.584" font-family="Times,serif" font-size="10.00" fill="#000000">Shape</text>
<polyline fill="none" stroke="#000000" points="575.4385,-1.584 575.4385,-19.584 "/>
<text text-anchor="middle" x="596.7686" y="-7.584" font-family="Times,serif" font-size="10.00" fill="#000000">(5, 5)</text>
</g>
<!-- Node_0xc0000a95e0 -->
<g id="0xc0000a95e0" class="node">
<title>Node_0xc0000a95e0</title>
<path fill="#ffff00" stroke="#000000" d="M1178,-.5C1178,-.5 1242.2695,-.5 1242.2695,-.5 1248.2695,-.5 1254.2695,-6.5 1254.2695,-12.5 1254.2695,-12.5 1254.2695,-44.668 1254.2695,-44.668 1254.2695,-50.668 1248.2695,-56.668 1242.2695,-56.668 1242.2695,-56.668 1178,-56.668 1178,-56.668 1172,-56.668 1166,-50.668 1166,-44.668 1166,-44.668 1166,-12.5 1166,-12.5 1166,-6.5 1172,-.5 1178,-.5"/>
<text text-anchor="middle" x="1186.5752" y="-44.668" font-family="Times,serif" font-size="10.00" fill="#000000">Uᵢ</text>
<polyline fill="none" stroke="#000000" points="1207.1504,-36.5 1207.1504,-56.668 "/>
<text text-anchor="middle" x="1230.6504" y="-43.584" font-family="Times,serif" font-size="10.00" fill="#000000">0x8</text>
<polyline fill="none" stroke="#000000" points="1166,-36.5 1254.2695,-36.5 "/>
<text text-anchor="middle" x="1180.1108" y="-24.5" font-family="Times,serif" font-size="10.00" fill="#000000">Op</text>
<polyline fill="none" stroke="#000000" points="1194.2217,-18.5 1194.2217,-36.5 "/>
<text text-anchor="middle" x="1224.2456" y="-24.5" font-family="Times,serif" font-size="10.00" fill="#000000">%!s(&lt;nil&gt;)</text>
<polyline fill="none" stroke="#000000" points="1166,-18.5 1254.2695,-18.5 "/>
<text text-anchor="middle" x="1188.7192" y="-6.5" font-family="Times,serif" font-size="10.00" fill="#000000">Shape</text>
<polyline fill="none" stroke="#000000" points="1211.4385,-.5 1211.4385,-18.5 "/>
<text text-anchor="middle" x="1232.7686" y="-6.5" font-family="Times,serif" font-size="10.00" fill="#000000">(5, 5)</text>
</g>
<!-- Node_0xc0000a97a0 -->
<g id="0xc0000a97a0" class="node">
<title>Node_0xc0000a97a0</title>
<path fill="#ffff00" stroke="#000000" d="M1390,-.5017C1390,-.5017 1454.2695,-.5017 1454.2695,-.5017 1460.2695,-.5017 1466.2695,-6.5017 1466.2695,-12.5017 1466.2695,-12.5017 1466.2695,-44.6663 1466.2695,-44.6663 1466.2695,-50.6663 1460.2695,-56.6663 1454.2695,-56.6663 1454.2695,-56.6663 1390,-56.6663 1390,-56.6663 1384,-56.6663 1378,-50.6663 1378,-44.6663 1378,-44.6663 1378,-12.5017 1378,-12.5017 1378,-6.5017 1384,-.5017 1390,-.5017"/>
<text text-anchor="middle" x="1398.5234" y="-44.6663" font-family="Times,serif" font-size="10.00" fill="#000000">Uₒ</text>
<polyline fill="none" stroke="#000000" points="1419.0469,-36.5017 1419.0469,-56.6663 "/>
<text text-anchor="middle" x="1442.5469" y="-43.584" font-family="Times,serif" font-size="10.00" fill="#000000">0x9</text>
<polyline fill="none" stroke="#000000" points="1378,-36.5017 1466.2695,-36.5017 "/>
<text text-anchor="middle" x="1392.1108" y="-24.5017" font-family="Times,serif" font-size="10.00" fill="#000000">Op</text>
<polyline fill="none" stroke="#000000" points="1406.2217,-18.5017 1406.2217,-36.5017 "/>
<text text-anchor="middle" x="1436.2456" y="-24.5017" font-family="Times,serif" font-size="10.00" fill="#000000">%!s(&lt;nil&gt;)</text>
<polyline fill="none" stroke="#000000" points="1378,-18.5017 1466.2695,-18.5017 "/>
<text text-anchor="middle" x="1400.7192" y="-6.5017" font-family="Times,serif" font-size="10.00" fill="#000000">Shape</text>
<polyline fill="none" stroke="#000000" points="1423.4385,-.5017 1423.4385,-18.5017 "/>
<text text-anchor="middle" x="1444.7686" y="-6.5017" font-family="Times,serif" font-size="10.00" fill="#000000">(5, 5)</text>
</g>
<!-- Node_0xc0000a9880 -->
<g id="0xc0000a9880" class="node">
<title>Node_0xc0000a9880</title>
<path fill="#ffff00" stroke="#000000" d="M754,-1.584C754,-1.584 818.2695,-1.584 818.2695,-1.584 824.2695,-1.584 830.2695,-7.584 830.2695,-13.584 830.2695,-13.584 830.2695,-43.584 830.2695,-43.584 830.2695,-49.584 824.2695,-55.584 818.2695,-55.584 818.2695,-55.584 754,-55.584 754,-55.584 748,-55.584 742,-49.584 742,-43.584 742,-43.584 742,-13.584 742,-13.584 742,-7.584 748,-1.584 754,-1.584"/>
<text text-anchor="middle" x="763.3301" y="-43.584" font-family="Times,serif" font-size="10.00" fill="#000000">Uc</text>
<polyline fill="none" stroke="#000000" points="784.6602,-37.584 784.6602,-55.584 "/>
<text text-anchor="middle" x="807.3794" y="-43.584" font-family="Times,serif" font-size="10.00" fill="#000000">0xa</text>
<polyline fill="none" stroke="#000000" points="742,-37.584 830.2695,-37.584 "/>
<text text-anchor="middle" x="756.1108" y="-25.584" font-family="Times,serif" font-size="10.00" fill="#000000">Op</text>
<polyline fill="none" stroke="#000000" points="770.2217,-19.584 770.2217,-37.584 "/>
<text text-anchor="middle" x="800.2456" y="-25.584" font-family="Times,serif" font-size="10.00" fill="#000000">%!s(&lt;nil&gt;)</text>
<polyline fill="none" stroke="#000000" points="742,-19.584 830.2695,-19.584 "/>
<text text-anchor="middle" x="764.7192" y="-7.584" font-family="Times,serif" font-size="10.00" fill="#000000">Shape</text>
<polyline fill="none" stroke="#000000" points="787.4385,-1.584 787.4385,-19.584 "/>
<text text-anchor="middle" x="808.7686" y="-7.584" font-family="Times,serif" font-size="10.00" fill="#000000">(5, 5)</text>
</g>
<!-- Node_0xc0000a9960 -->
<g id="0xc0000a9960" class="node">
<title>Node_0xc0000a9960</title>
<path fill="#ffff00" stroke="#000000" d="M118,-1.584C118,-1.584 182.2695,-1.584 182.2695,-1.584 188.2695,-1.584 194.2695,-7.584 194.2695,-13.584 194.2695,-13.584 194.2695,-43.584 194.2695,-43.584 194.2695,-49.584 188.2695,-55.584 182.2695,-55.584 182.2695,-55.584 118,-55.584 118,-55.584 112,-55.584 106,-49.584 106,-43.584 106,-43.584 106,-13.584 106,-13.584 106,-7.584 112,-1.584 118,-1.584"/>
<text text-anchor="middle" x="126.165" y="-43.584" font-family="Times,serif" font-size="10.00" fill="#000000">bf</text>
<polyline fill="none" stroke="#000000" points="146.3301,-37.584 146.3301,-55.584 "/>
<text text-anchor="middle" x="169.8301" y="-43.584" font-family="Times,serif" font-size="10.00" fill="#000000">0xb</text>
<polyline fill="none" stroke="#000000" points="106,-37.584 194.2695,-37.584 "/>
<text text-anchor="middle" x="120.1108" y="-25.584" font-family="Times,serif" font-size="10.00" fill="#000000">Op</text>
<polyline fill="none" stroke="#000000" points="134.2217,-19.584 134.2217,-37.584 "/>
<text text-anchor="middle" x="164.2456" y="-25.584" font-family="Times,serif" font-size="10.00" fill="#000000">%!s(&lt;nil&gt;)</text>
<polyline fill="none" stroke="#000000" points="106,-19.584 194.2695,-19.584 "/>
<text text-anchor="middle" x="131.2192" y="-7.584" font-family="Times,serif" font-size="10.00" fill="#000000">Shape</text>
<polyline fill="none" stroke="#000000" points="156.4385,-1.584 156.4385,-19.584 "/>
<text text-anchor="middle" x="175.2686" y="-7.584" font-family="Times,serif" font-size="10.00" fill="#000000">(5)</text>
</g>
<!-- Node_0xc0000a9a40 -->
<g id="0xc0000a9a40" class="node">
<title>Node_0xc0000a9a40</title>
<path fill="#ffff00" stroke="#000000" d="M330,-.5C330,-.5 394.2695,-.5 394.2695,-.5 400.2695,-.5 406.2695,-6.5 406.2695,-12.5 406.2695,-12.5 406.2695,-44.668 406.2695,-44.668 406.2695,-50.668 400.2695,-56.668 394.2695,-56.668 394.2695,-56.668 330,-56.668 330,-56.668 324,-56.668 318,-50.668 318,-44.668 318,-44.668 318,-12.5 318,-12.5 318,-6.5 324,-.5 330,-.5"/>
<text text-anchor="middle" x="337.9644" y="-44.668" font-family="Times,serif" font-size="10.00" fill="#000000">bᵢ</text>
<polyline fill="none" stroke="#000000" points="357.9287,-36.5 357.9287,-56.668 "/>
<text text-anchor="middle" x="381.6479" y="-43.584" font-family="Times,serif" font-size="10.00" fill="#000000">0xc</text>
<polyline fill="none" stroke="#000000" points="318,-36.5 406.2695,-36.5 "/>
<text text-anchor="middle" x="332.1108" y="-24.5" font-family="Times,serif" font-size="10.00" fill="#000000">Op</text>
<polyline fill="none" stroke="#000000" points="346.2217,-18.5 346.2217,-36.5 "/>
<text text-anchor="middle" x="376.2456" y="-24.5" font-family="Times,serif" font-size="10.00" fill="#000000">%!s(&lt;nil&gt;)</text>
<polyline fill="none" stroke="#000000" points="318,-18.5 406.2695,-18.5 "/>
<text text-anchor="middle" x="343.2192" y="-6.5" font-family="Times,serif" font-size="10.00" fill="#000000">Shape</text>
<polyline fill="none" stroke="#000000" points="368.4385,-.5 368.4385,-18.5 "/>
<text text-anchor="middle" x="387.2686" y="-6.5" font-family="Times,serif" font-size="10.00" fill="#000000">(5)</text>
</g>
<!-- Node_0xc0000a9b20 -->
<g id="0xc0000a9b20" class="node">
<title>Node_0xc0000a9b20</title>
<path fill="#ffff00" stroke="#000000" d="M1496,-.5017C1496,-.5017 1560.2695,-.5017 1560.2695,-.5017 1566.2695,-.5017 1572.2695,-6.5017 1572.2695,-12.5017 1572.2695,-12.5017 1572.2695,-44.6663 1572.2695,-44.6663 1572.2695,-50.6663 1566.2695,-56.6663 1560.2695,-56.6663 1560.2695,-56.6663 1496,-56.6663 1496,-56.6663 1490,-56.6663 1484,-50.6663 1484,-44.6663 1484,-44.6663 1484,-12.5017 1484,-12.5017 1484,-6.5017 1490,-.5017 1496,-.5017"/>
<text text-anchor="middle" x="1503.9126" y="-44.6663" font-family="Times,serif" font-size="10.00" fill="#000000">bₒ</text>
<polyline fill="none" stroke="#000000" points="1523.8252,-36.5017 1523.8252,-56.6663 "/>
<text text-anchor="middle" x="1547.8252" y="-43.584" font-family="Times,serif" font-size="10.00" fill="#000000">0xd</text>
<polyline fill="none" stroke="#000000" points="1484,-36.5017 1572.2695,-36.5017 "/>
<text text-anchor="middle" x="1498.1108" y="-24.5017" font-family="Times,serif" font-size="10.00" fill="#000000">Op</text>
<polyline fill="none" stroke="#000000" points="1512.2217,-18.5017 1512.2217,-36.5017 "/>
<text text-anchor="middle" x="1542.2456" y="-24.5017" font-family="Times,serif" font-size="10.00" fill="#000000">%!s(&lt;nil&gt;)</text>
<polyline fill="none" stroke="#000000" points="1484,-18.5017 1572.2695,-18.5017 "/>
<text text-anchor="middle" x="1509.2192" y="-6.5017" font-family="Times,serif" font-size="10.00" fill="#000000">Shape</text>
<polyline fill="none" stroke="#000000" points="1534.4385,-.5017 1534.4385,-18.5017 "/>
<text text-anchor="middle" x="1553.2686" y="-6.5017" font-family="Times,serif" font-size="10.00" fill="#000000">(5)</text>
</g>
<!-- Node_0xc0000a9c00 -->
<g id="0xc0000a9c00" class="node">
<title>Node_0xc0000a9c00</title>
<path fill="#ffff00" stroke="#000000" d="M224,-1.584C224,-1.584 288.2695,-1.584 288.2695,-1.584 294.2695,-1.584 300.2695,-7.584 300.2695,-13.584 300.2695,-13.584 300.2695,-43.584 300.2695,-43.584 300.2695,-49.584 294.2695,-55.584 288.2695,-55.584 288.2695,-55.584 224,-55.584 224,-55.584 218,-55.584 212,-49.584 212,-43.584 212,-43.584 212,-13.584 212,-13.584 212,-7.584 218,-1.584 224,-1.584"/>
<text text-anchor="middle" x="232.7192" y="-43.584" font-family="Times,serif" font-size="10.00" fill="#000000">bc</text>
<polyline fill="none" stroke="#000000" points="253.4385,-37.584 253.4385,-55.584 "/>
<text text-anchor="middle" x="276.6577" y="-43.584" font-family="Times,serif" font-size="10.00" fill="#000000">0xe</text>
<polyline fill="none" stroke="#000000" points="212,-37.584 300.2695,-37.584 "/>
<text text-anchor="middle" x="226.1108" y="-25.584" font-family="Times,serif" font-size="10.00" fill="#000000">Op</text>
<polyline fill="none" stroke="#000000" points="240.2217,-19.584 240.2217,-37.584 "/>
<text text-anchor="middle" x="270.2456" y="-25.584" font-family="Times,serif" font-size="10.00" fill="#000000">%!s(&lt;nil&gt;)</text>
<polyline fill="none" stroke="#000000" points="212,-19.584 300.2695,-19.584 "/>
<text text-anchor="middle" x="237.2192" y="-7.584" font-family="Times,serif" font-size="10.00" fill="#000000">Shape</text>
<polyline fill="none" stroke="#000000" points="262.4385,-1.584 262.4385,-19.584 "/>
<text text-anchor="middle" x="281.2686" y="-7.584" font-family="Times,serif" font-size="10.00" fill="#000000">(5)</text>
</g>
<!-- Node_0xc0000a9ce0 -->
<g id="0xc0000a9ce0" class="node">
<title>Node_0xc0000a9ce0</title>
<path fill="#ffffff" stroke="#000000" d="M939.1523,-75.668C939.1523,-75.668 1021.1172,-75.668 1021.1172,-75.668 1027.1172,-75.668 1033.1172,-81.668 1033.1172,-87.668 1033.1172,-87.668 1033.1172,-117.668 1033.1172,-117.668 1033.1172,-123.668 1027.1172,-129.668 1021.1172,-129.668 1021.1172,-129.668 939.1523,-129.668 939.1523,-129.668 933.1523,-129.668 927.1523,-123.668 927.1523,-117.668 927.1523,-117.668 927.1523,-87.668 927.1523,-87.668 927.1523,-81.668 933.1523,-75.668 939.1523,-75.668"/>
<text text-anchor="middle" x="965.4697" y="-117.668" font-family="Times,serif" font-size="10.00" fill="#000000">A × b(%4, %0)</text>
<polyline fill="none" stroke="#000000" points="1003.7871,-111.668 1003.7871,-129.668 "/>
<text text-anchor="middle" x="1018.4521" y="-117.668" font-family="Times,serif" font-size="10.00" fill="#000000">0xf</text>
<polyline fill="none" stroke="#000000" points="927.1523,-111.668 1033.1172,-111.668 "/>
<text text-anchor="middle" x="950.7632" y="-99.668" font-family="Times,serif" font-size="10.00" fill="#000000">Op</text>
<polyline fill="none" stroke="#000000" points="974.374,-93.668 974.374,-111.668 "/>
<text text-anchor="middle" x="1003.5313" y="-99.668" font-family="Times,serif" font-size="10.00" fill="#000000">A × b</text>
<polyline fill="none" stroke="#000000" points="927.1523,-93.668 1033.1172,-93.668 "/>
<text text-anchor="middle" x="956.3716" y="-81.668" font-family="Times,serif" font-size="10.00" fill="#000000">Shape</text>
<polyline fill="none" stroke="#000000" points="985.5908,-75.668 985.5908,-93.668 "/>
<text text-anchor="middle" x="1008.9209" y="-81.668" font-family="Times,serif" font-size="10.00" fill="#000000">(5)</text>
</g>
<!-- Node_0xc0000a9ce0&#45;&gt;Node_0xc0000a8ee0 -->
<g id="edge1" class="edge">
<title>Node_0xc0000a9ce0&#45;&gt;Node_0xc0000a8ee0</title>
<path fill="none" stroke="#000000" d="M947.8665,-75.5025C943.0378,-71.4374 938.0058,-67.2012 933.0271,-63.0098"/>
<polygon fill="#000000" stroke="#000000" points="935.1884,-60.2541 925.2843,-56.4913 930.6802,-65.6092 935.1884,-60.2541"/>
</g>
<!-- Node_0xc0000a9ce0&#45;&gt;Node_0xc0000a9260 -->
<g id="edge2" class="edge">
<title>Node_0xc0000a9ce0&#45;&gt;Node_0xc0000a9260</title>
<path fill="none" stroke="#000000" d="M986.7351,-75.5025C987.4312,-72.6376 988.1479,-69.6877 988.8669,-66.7283"/>
<polygon fill="#000000" stroke="#000000" points="992.3336,-67.2842 991.2936,-56.7405 985.5315,-65.6315 992.3336,-67.2842"/>
</g>
<!-- Node_0xc0000a9dc0 -->
<g id="0xc0000a9dc0" class="node">
<title>Node_0xc0000a9dc0</title>
<path fill="#ffffff" stroke="#000000" d="M1062.8174,-75.668C1062.8174,-75.668 1151.4521,-75.668 1151.4521,-75.668 1157.4521,-75.668 1163.4521,-81.668 1163.4521,-87.668 1163.4521,-87.668 1163.4521,-117.668 1163.4521,-117.668 1163.4521,-123.668 1157.4521,-129.668 1151.4521,-129.668 1151.4521,-129.668 1062.8174,-129.668 1062.8174,-129.668 1056.8174,-129.668 1050.8174,-123.668 1050.8174,-117.668 1050.8174,-117.668 1050.8174,-87.668 1050.8174,-87.668 1050.8174,-81.668 1056.8174,-75.668 1062.8174,-75.668"/>
<text text-anchor="middle" x="1089.1348" y="-117.668" font-family="Times,serif" font-size="10.00" fill="#000000">A × b(%8, %1)</text>
<polyline fill="none" stroke="#000000" points="1127.4521,-111.668 1127.4521,-129.668 "/>
<text text-anchor="middle" x="1145.4521" y="-117.668" font-family="Times,serif" font-size="10.00" fill="#000000">0x10</text>
<polyline fill="none" stroke="#000000" points="1050.8174,-111.668 1163.4521,-111.668 "/>
<text text-anchor="middle" x="1076.4282" y="-99.668" font-family="Times,serif" font-size="10.00" fill="#000000">Op</text>
<polyline fill="none" stroke="#000000" points="1102.0391,-93.668 1102.0391,-111.668 "/>
<text text-anchor="middle" x="1132.6963" y="-99.668" font-family="Times,serif" font-size="10.00" fill="#000000">A × b</text>
<polyline fill="none" stroke="#000000" points="1050.8174,-93.668 1163.4521,-93.668 "/>
<text text-anchor="middle" x="1082.0366" y="-81.668" font-family="Times,serif" font-size="10.00" fill="#000000">Shape</text>
<polyline fill="none" stroke="#000000" points="1113.2559,-75.668 1113.2559,-93.668 "/>
<text text-anchor="middle" x="1138.0859" y="-81.668" font-family="Times,serif" font-size="10.00" fill="#000000">(5)</text>
</g>
<!-- Node_0xc0000a9dc0&#45;&gt;Node_0xc0000a8fc0 -->
<g id="edge3" class="edge">
<title>Node_0xc0000a9dc0&#45;&gt;Node_0xc0000a8fc0</title>
<path fill="none" stroke="#000000" d="M1106.0347,-75.5025C1105.9226,-72.7331 1105.8072,-69.8842 1105.6914,-67.0242"/>
<polygon fill="#000000" stroke="#000000" points="1109.1768,-66.5907 1105.275,-56.7405 1102.1825,-66.874 1109.1768,-66.5907"/>
</g>
<!-- Node_0xc0000a9dc0&#45;&gt;Node_0xc0000a95e0 -->
<g id="edge4" class="edge">
<title>Node_0xc0000a9dc0&#45;&gt;Node_0xc0000a95e0</title>
<path fill="none" stroke="#000000" d="M1144.9033,-75.5025C1150.7452,-71.3006 1156.8414,-66.9159 1162.8602,-62.5868"/>
<polygon fill="#000000" stroke="#000000" points="1164.9138,-65.421 1170.9883,-56.7405 1160.8264,-59.7383 1164.9138,-65.421"/>
</g>
<!-- Node_0xc0000a9ea0 -->
<g id="0xc0000a9ea0" class="node">
<title>Node_0xc0000a9ea0</title>
<path fill="#ffffff" stroke="#000000" d="M931.9844,-148.668C931.9844,-148.668 1028.2852,-148.668 1028.2852,-148.668 1034.2852,-148.668 1040.2852,-154.668 1040.2852,-160.668 1040.2852,-160.668 1040.2852,-190.668 1040.2852,-190.668 1040.2852,-196.668 1034.2852,-202.668 1028.2852,-202.668 1028.2852,-202.668 931.9844,-202.668 931.9844,-202.668 925.9844,-202.668 919.9844,-196.668 919.9844,-190.668 919.9844,-190.668 919.9844,-160.668 919.9844,-160.668 919.9844,-154.668 925.9844,-148.668 931.9844,-148.668"/>
<text text-anchor="middle" x="962.3179" y="-190.668" font-family="Times,serif" font-size="10.00" fill="#000000">+ false(%f, %10)</text>
<polyline fill="none" stroke="#000000" points="1004.6514,-184.668 1004.6514,-202.668 "/>
<text text-anchor="middle" x="1022.4683" y="-190.668" font-family="Times,serif" font-size="10.00" fill="#000000">0x11</text>
<polyline fill="none" stroke="#000000" points="919.9844,-184.668 1040.2852,-184.668 "/>
<text text-anchor="middle" x="946.0952" y="-172.668" font-family="Times,serif" font-size="10.00" fill="#000000">Op</text>
<polyline fill="none" stroke="#000000" points="972.2061,-166.668 972.2061,-184.668 "/>
<text text-anchor="middle" x="1006.2144" y="-172.668" font-family="Times,serif" font-size="10.00" fill="#000000">+ false</text>
<polyline fill="none" stroke="#000000" points="919.9844,-166.668 1040.2852,-166.668 "/>
<text text-anchor="middle" x="953.2036" y="-154.668" font-family="Times,serif" font-size="10.00" fill="#000000">Shape</text>
<polyline fill="none" stroke="#000000" points="986.4229,-148.668 986.4229,-166.668 "/>
<text text-anchor="middle" x="1013.2529" y="-154.668" font-family="Times,serif" font-size="10.00" fill="#000000">(5)</text>
</g>
<!-- Node_0xc0000a9ea0&#45;&gt;Node_0xc0000a9ce0 -->
<g id="edge5" class="edge">
<title>Node_0xc0000a9ea0&#45;&gt;Node_0xc0000a9ce0</title>
<path fill="none" stroke="#000000" d="M980.1348,-148.4855C980.1348,-145.767 980.1348,-142.9745 980.1348,-140.1742"/>
<polygon fill="#000000" stroke="#000000" points="983.6349,-140.1166 980.1348,-130.1166 976.6349,-140.1167 983.6349,-140.1166"/>
</g>
<!-- Node_0xc0000a9ea0&#45;&gt;Node_0xc0000a9dc0 -->
<g id="edge6" class="edge">
<title>Node_0xc0000a9ea0&#45;&gt;Node_0xc0000a9dc0</title>
<path fill="none" stroke="#000000" d="M1027.4249,-148.4855C1035.1108,-144.0676 1043.1363,-139.4545 1051.0085,-134.9295"/>
<polygon fill="#000000" stroke="#000000" points="1052.8796,-137.8911 1059.8052,-129.8732 1049.3911,-131.8222 1052.8796,-137.8911"/>
</g>
<!-- Node_0xc0001ae000 -->
<g id="0xc0001ae000" class="node">
<title>Node_0xc0001ae000</title>
<path fill="#ffffff" stroke="#000000" d="M807.4302,-221.668C807.4302,-221.668 904.8394,-221.668 904.8394,-221.668 910.8394,-221.668 916.8394,-227.668 916.8394,-233.668 916.8394,-233.668 916.8394,-263.668 916.8394,-263.668 916.8394,-269.668 910.8394,-275.668 904.8394,-275.668 904.8394,-275.668 807.4302,-275.668 807.4302,-275.668 801.4302,-275.668 795.4302,-269.668 795.4302,-263.668 795.4302,-263.668 795.4302,-233.668 795.4302,-233.668 795.4302,-227.668 801.4302,-221.668 807.4302,-221.668"/>
<text text-anchor="middle" x="838.1348" y="-263.668" font-family="Times,serif" font-size="10.00" fill="#000000">+ false(%11, %c)</text>
<polyline fill="none" stroke="#000000" points="880.8394,-257.668 880.8394,-275.668 "/>
<text text-anchor="middle" x="898.8394" y="-263.668" font-family="Times,serif" font-size="10.00" fill="#000000">0x12</text>
<polyline fill="none" stroke="#000000" points="795.4302,-257.668 916.8394,-257.668 "/>
<text text-anchor="middle" x="822.041" y="-245.668" font-family="Times,serif" font-size="10.00" fill="#000000">Op</text>
<polyline fill="none" stroke="#000000" points="848.6519,-239.668 848.6519,-257.668 "/>
<text text-anchor="middle" x="882.6602" y="-245.668" font-family="Times,serif" font-size="10.00" fill="#000000">+ false</text>
<polyline fill="none" stroke="#000000" points="795.4302,-239.668 916.8394,-239.668 "/>
<text text-anchor="middle" x="828.6494" y="-227.668" font-family="Times,serif" font-size="10.00" fill="#000000">Shape</text>
<polyline fill="none" stroke="#000000" points="861.8687,-221.668 861.8687,-239.668 "/>
<text text-anchor="middle" x="889.1987" y="-227.668" font-family="Times,serif" font-size="10.00" fill="#000000">(5)</text>
</g>
<!-- Node_0xc0001ae000&#45;&gt;Node_0xc0000a9a40 -->
<g id="edge7" class="edge">
<title>Node_0xc0001ae000&#45;&gt;Node_0xc0000a9a40</title>
<path fill="none" stroke="#000000" d="M795.4158,-223.4603C792.3045,-222.5959 789.1993,-221.8225 786.1348,-221.168 744.0376,-212.1774 431.9413,-231.0378 399.1348,-203.168 360.2527,-170.1368 356.0822,-107.3662 358.0555,-66.7809"/>
<polygon fill="#000000" stroke="#000000" points="361.5535,-66.9218 358.6917,-56.7208 354.5675,-66.48 361.5535,-66.9218"/>
</g>
<!-- Node_0xc0001ae000&#45;&gt;Node_0xc0000a9ea0 -->
<g id="edge8" class="edge">
<title>Node_0xc0001ae000&#45;&gt;Node_0xc0000a9ea0</title>
<path fill="none" stroke="#000000" d="M902.3078,-221.4855C909.7315,-217.1151 917.4796,-212.5537 925.0864,-208.0755"/>
<polygon fill="#000000" stroke="#000000" points="927.0813,-210.9626 933.9232,-202.8732 923.53,-204.9303 927.0813,-210.9626"/>
</g>
<!-- Node_0xc0001ae0e0 -->
<g id="0xc0001ae0e0" class="node">
<title>Node_0xc0001ae0e0</title>
<path fill="#ffffff" stroke="#000000" d="M804.5264,-294.668C804.5264,-294.668 889.7432,-294.668 889.7432,-294.668 895.7432,-294.668 901.7432,-300.668 901.7432,-306.668 901.7432,-306.668 901.7432,-336.668 901.7432,-336.668 901.7432,-342.668 895.7432,-348.668 889.7432,-348.668 889.7432,-348.668 804.5264,-348.668 804.5264,-348.668 798.5264,-348.668 792.5264,-342.668 792.5264,-336.668 792.5264,-336.668 792.5264,-306.668 792.5264,-306.668 792.5264,-300.668 798.5264,-294.668 804.5264,-294.668"/>
<text text-anchor="middle" x="829.1348" y="-336.668" font-family="Times,serif" font-size="10.00" fill="#000000">sigmoid(%12)</text>
<polyline fill="none" stroke="#000000" points="865.7432,-330.668 865.7432,-348.668 "/>
<text text-anchor="middle" x="883.7432" y="-336.668" font-family="Times,serif" font-size="10.00" fill="#000000">0x13</text>
<polyline fill="none" stroke="#000000" points="792.5264,-330.668 901.7432,-330.668 "/>
<text text-anchor="middle" x="814.6372" y="-318.668" font-family="Times,serif" font-size="10.00" fill="#000000">Op</text>
<polyline fill="none" stroke="#000000" points="836.748,-312.668 836.748,-330.668 "/>
<text text-anchor="middle" x="868.8613" y="-318.668" font-family="Times,serif" font-size="10.00" fill="#000000">sigmoid</text>
<polyline fill="none" stroke="#000000" points="792.5264,-312.668 901.7432,-312.668 "/>
<text text-anchor="middle" x="822.7456" y="-300.668" font-family="Times,serif" font-size="10.00" fill="#000000">Shape</text>
<polyline fill="none" stroke="#000000" points="852.9648,-294.668 852.9648,-312.668 "/>
<text text-anchor="middle" x="877.2949" y="-300.668" font-family="Times,serif" font-size="10.00" fill="#000000">(5)</text>
</g>
<!-- Node_0xc0001ae0e0&#45;&gt;Node_0xc0001ae000 -->
<g id="edge9" class="edge">
<title>Node_0xc0001ae0e0&#45;&gt;Node_0xc0001ae000</title>
<path fill="none" stroke="#000000" d="M850.486,-294.4855C850.8212,-291.767 851.1655,-288.9745 851.5107,-286.1742"/>
<polygon fill="#000000" stroke="#000000" points="855.0007,-286.4698 852.7507,-276.1166 848.0533,-285.6132 855.0007,-286.4698"/>
</g>
<!-- Node_0xc0001ae1c0 -->
<g id="0xc0001ae1c0" class="node">
<title>Node_0xc0001ae1c0</title>
<path fill="#ffffff" stroke="#000000" d="M419.8174,-75.668C419.8174,-75.668 508.4521,-75.668 508.4521,-75.668 514.4521,-75.668 520.4521,-81.668 520.4521,-87.668 520.4521,-87.668 520.4521,-117.668 520.4521,-117.668 520.4521,-123.668 514.4521,-129.668 508.4521,-129.668 508.4521,-129.668 419.8174,-129.668 419.8174,-129.668 413.8174,-129.668 407.8174,-123.668 407.8174,-117.668 407.8174,-117.668 407.8174,-87.668 407.8174,-87.668 407.8174,-81.668 413.8174,-75.668 419.8174,-75.668"/>
<text text-anchor="middle" x="446.1348" y="-117.668" font-family="Times,serif" font-size="10.00" fill="#000000">A × b(%3, %0)</text>
<polyline fill="none" stroke="#000000" points="484.4521,-111.668 484.4521,-129.668 "/>
<text text-anchor="middle" x="502.4521" y="-117.668" font-family="Times,serif" font-size="10.00" fill="#000000">0x14</text>
<polyline fill="none" stroke="#000000" points="407.8174,-111.668 520.4521,-111.668 "/>
<text text-anchor="middle" x="433.4282" y="-99.668" font-family="Times,serif" font-size="10.00" fill="#000000">Op</text>
<polyline fill="none" stroke="#000000" points="459.0391,-93.668 459.0391,-111.668 "/>
<text text-anchor="middle" x="489.6963" y="-99.668" font-family="Times,serif" font-size="10.00" fill="#000000">A × b</text>
<polyline fill="none" stroke="#000000" points="407.8174,-93.668 520.4521,-93.668 "/>
<text text-anchor="middle" x="439.0366" y="-81.668" font-family="Times,serif" font-size="10.00" fill="#000000">Shape</text>
<polyline fill="none" stroke="#000000" points="470.2559,-75.668 470.2559,-93.668 "/>
<text text-anchor="middle" x="495.0859" y="-81.668" font-family="Times,serif" font-size="10.00" fill="#000000">(5)</text>
</g>
<!-- Node_0xc0001ae1c0&#45;&gt;Node_0xc0000a8ee0 -->
<g id="edge10" class="edge">
<title>Node_0xc0001ae1c0&#45;&gt;Node_0xc0000a8ee0</title>
<path fill="none" stroke="#000000" d="M508.0651,-75.5C515.2208,-72.1241 522.7222,-69.1631 530.1348,-67.168 593.7554,-50.0444 758.5238,-73.0221 838.1858,-56.6156"/>
<polygon fill="#000000" stroke="#000000" points="839.0129,-60.0166 847.9256,-54.2882 837.3859,-53.2083 839.0129,-60.0166"/>
</g>
<!-- Node_0xc0001ae1c0&#45;&gt;Node_0xc0000a9180 -->
<g id="edge11" class="edge">
<title>Node_0xc0001ae1c0&#45;&gt;Node_0xc0000a9180</title>
<path fill="none" stroke="#000000" d="M465.6015,-75.5025C465.77,-72.3821 465.9439,-69.1608 466.118,-65.9363"/>
<polygon fill="#000000" stroke="#000000" points="469.6239,-65.9204 466.6682,-55.7462 462.6341,-65.5429 469.6239,-65.9204"/>
</g>
<!-- Node_0xc0001ae2a0 -->
<g id="0xc0001ae2a0" class="node">
<title>Node_0xc0001ae2a0</title>
<path fill="#ffffff" stroke="#000000" d="M550.8174,-75.668C550.8174,-75.668 639.4521,-75.668 639.4521,-75.668 645.4521,-75.668 651.4521,-81.668 651.4521,-87.668 651.4521,-87.668 651.4521,-117.668 651.4521,-117.668 651.4521,-123.668 645.4521,-129.668 639.4521,-129.668 639.4521,-129.668 550.8174,-129.668 550.8174,-129.668 544.8174,-129.668 538.8174,-123.668 538.8174,-117.668 538.8174,-117.668 538.8174,-87.668 538.8174,-87.668 538.8174,-81.668 544.8174,-75.668 550.8174,-75.668"/>
<text text-anchor="middle" x="577.1348" y="-117.668" font-family="Times,serif" font-size="10.00" fill="#000000">A × b(%7, %1)</text>
<polyline fill="none" stroke="#000000" points="615.4521,-111.668 615.4521,-129.668 "/>
<text text-anchor="middle" x="633.4521" y="-117.668" font-family="Times,serif" font-size="10.00" fill="#000000">0x15</text>
<polyline fill="none" stroke="#000000" points="538.8174,-111.668 651.4521,-111.668 "/>
<text text-anchor="middle" x="564.4282" y="-99.668" font-family="Times,serif" font-size="10.00" fill="#000000">Op</text>
<polyline fill="none" stroke="#000000" points="590.0391,-93.668 590.0391,-111.668 "/>
<text text-anchor="middle" x="620.6963" y="-99.668" font-family="Times,serif" font-size="10.00" fill="#000000">A × b</text>
<polyline fill="none" stroke="#000000" points="538.8174,-93.668 651.4521,-93.668 "/>
<text text-anchor="middle" x="570.0366" y="-81.668" font-family="Times,serif" font-size="10.00" fill="#000000">Shape</text>
<polyline fill="none" stroke="#000000" points="601.2559,-75.668 601.2559,-93.668 "/>
<text text-anchor="middle" x="626.0859" y="-81.668" font-family="Times,serif" font-size="10.00" fill="#000000">(5)</text>
</g>
<!-- Node_0xc0001ae2a0&#45;&gt;Node_0xc0000a8fc0 -->
<g id="edge12" class="edge">
<title>Node_0xc0001ae2a0&#45;&gt;Node_0xc0000a8fc0</title>
<path fill="none" stroke="#000000" d="M637.9954,-75.6276C645.1562,-72.1862 652.6847,-69.1716 660.1348,-67.168 741.2006,-45.3658 952.0543,-77.1998 1049.9713,-56.6904"/>
<polygon fill="#000000" stroke="#000000" points="1051.0184,-60.0388 1059.9318,-54.3116 1049.3923,-53.2303 1051.0184,-60.0388"/>
</g>
<!-- Node_0xc0001ae2a0&#45;&gt;Node_0xc0000a9500 -->
<g id="edge13" class="edge">
<title>Node_0xc0001ae2a0&#45;&gt;Node_0xc0000a9500</title>
<path fill="none" stroke="#000000" d="M587.4344,-75.5025C586.5213,-72.2814 585.5778,-68.9528 584.6343,-65.6243"/>
<polygon fill="#000000" stroke="#000000" points="587.9288,-64.4126 581.8342,-55.7462 581.1941,-66.3217 587.9288,-64.4126"/>
</g>
<!-- Node_0xc0001ae380 -->
<g id="0xc0001ae380" class="node">
<title>Node_0xc0001ae380</title>
<path fill="#ffffff" stroke="#000000" d="M420.4663,-148.668C420.4663,-148.668 523.8032,-148.668 523.8032,-148.668 529.8032,-148.668 535.8032,-154.668 535.8032,-160.668 535.8032,-160.668 535.8032,-190.668 535.8032,-190.668 535.8032,-196.668 529.8032,-202.668 523.8032,-202.668 523.8032,-202.668 420.4663,-202.668 420.4663,-202.668 414.4663,-202.668 408.4663,-196.668 408.4663,-190.668 408.4663,-190.668 408.4663,-160.668 408.4663,-160.668 408.4663,-154.668 414.4663,-148.668 420.4663,-148.668"/>
<text text-anchor="middle" x="454.1348" y="-190.668" font-family="Times,serif" font-size="10.00" fill="#000000">+ false(%14, %15)</text>
<polyline fill="none" stroke="#000000" points="499.8032,-184.668 499.8032,-202.668 "/>
<text text-anchor="middle" x="517.8032" y="-190.668" font-family="Times,serif" font-size="10.00" fill="#000000">0x16</text>
<polyline fill="none" stroke="#000000" points="408.4663,-184.668 535.8032,-184.668 "/>
<text text-anchor="middle" x="436.5771" y="-172.668" font-family="Times,serif" font-size="10.00" fill="#000000">Op</text>
<polyline fill="none" stroke="#000000" points="464.688,-166.668 464.688,-184.668 "/>
<text text-anchor="middle" x="500.1963" y="-172.668" font-family="Times,serif" font-size="10.00" fill="#000000">+ false</text>
<polyline fill="none" stroke="#000000" points="408.4663,-166.668 535.8032,-166.668 "/>
<text text-anchor="middle" x="443.1855" y="-154.668" font-family="Times,serif" font-size="10.00" fill="#000000">Shape</text>
<polyline fill="none" stroke="#000000" points="477.9048,-148.668 477.9048,-166.668 "/>
<text text-anchor="middle" x="506.7349" y="-154.668" font-family="Times,serif" font-size="10.00" fill="#000000">(5)</text>
</g>
<!-- Node_0xc0001ae380&#45;&gt;Node_0xc0001ae1c0 -->
<g id="edge14" class="edge">
<title>Node_0xc0001ae380&#45;&gt;Node_0xc0001ae1c0</title>
<path fill="none" stroke="#000000" d="M469.1559,-148.4855C468.8579,-145.767 468.5519,-142.9745 468.245,-140.1742"/>
<polygon fill="#000000" stroke="#000000" points="471.7115,-139.6758 467.1428,-130.1166 464.7531,-140.4384 471.7115,-139.6758"/>
</g>
<!-- Node_0xc0001ae380&#45;&gt;Node_0xc0001ae2a0 -->
<g id="edge15" class="edge">
<title>Node_0xc0001ae380&#45;&gt;Node_0xc0001ae2a0</title>
<path fill="none" stroke="#000000" d="M517.9354,-148.4855C525.2992,-144.1151 532.9849,-139.5537 540.5303,-135.0755"/>
<polygon fill="#000000" stroke="#000000" points="542.4827,-137.9868 549.2959,-129.8732 538.91,-131.9672 542.4827,-137.9868"/>
</g>
<!-- Node_0xc0001ae460 -->
<g id="0xc0001ae460" class="node">
<title>Node_0xc0001ae460</title>
<path fill="#ffffff" stroke="#000000" d="M421.9663,-221.668C421.9663,-221.668 520.3032,-221.668 520.3032,-221.668 526.3032,-221.668 532.3032,-227.668 532.3032,-233.668 532.3032,-233.668 532.3032,-263.668 532.3032,-263.668 532.3032,-269.668 526.3032,-275.668 520.3032,-275.668 520.3032,-275.668 421.9663,-275.668 421.9663,-275.668 415.9663,-275.668 409.9663,-269.668 409.9663,-263.668 409.9663,-263.668 409.9663,-233.668 409.9663,-233.668 409.9663,-227.668 415.9663,-221.668 421.9663,-221.668"/>
<text text-anchor="middle" x="453.1348" y="-263.668" font-family="Times,serif" font-size="10.00" fill="#000000">+ false(%16, %b)</text>
<polyline fill="none" stroke="#000000" points="496.3032,-257.668 496.3032,-275.668 "/>
<text text-anchor="middle" x="514.3032" y="-263.668" font-family="Times,serif" font-size="10.00" fill="#000000">0x17</text>
<polyline fill="none" stroke="#000000" points="409.9663,-257.668 532.3032,-257.668 "/>
<text text-anchor="middle" x="436.5771" y="-245.668" font-family="Times,serif" font-size="10.00" fill="#000000">Op</text>
<polyline fill="none" stroke="#000000" points="463.188,-239.668 463.188,-257.668 "/>
<text text-anchor="middle" x="497.6963" y="-245.668" font-family="Times,serif" font-size="10.00" fill="#000000">+ false</text>
<polyline fill="none" stroke="#000000" points="409.9663,-239.668 532.3032,-239.668 "/>
<text text-anchor="middle" x="443.6855" y="-227.668" font-family="Times,serif" font-size="10.00" fill="#000000">Shape</text>
<polyline fill="none" stroke="#000000" points="477.4048,-221.668 477.4048,-239.668 "/>
<text text-anchor="middle" x="504.7349" y="-227.668" font-family="Times,serif" font-size="10.00" fill="#000000">(5)</text>
</g>
<!-- Node_0xc0001ae460&#45;&gt;Node_0xc0000a9960 -->
<g id="edge16" class="edge">
<title>Node_0xc0001ae460&#45;&gt;Node_0xc0000a9960</title>
<path fill="none" stroke="#000000" d="M409.917,-242.4846C351.3405,-235.5248 268.1663,-222.589 242.1348,-203.168 196.5677,-169.1724 171.4189,-105.8959 159.3637,-65.5814"/>
<polygon fill="#000000" stroke="#000000" points="162.6967,-64.5067 156.5764,-55.8584 155.9677,-66.4358 162.6967,-64.5067"/>
</g>
<!-- Node_0xc0001ae460&#45;&gt;Node_0xc0001ae380 -->
<g id="edge17" class="edge">
<title>Node_0xc0001ae460&#45;&gt;Node_0xc0001ae380</title>
<path fill="none" stroke="#000000" d="M471.5071,-221.4855C471.5444,-218.767 471.5826,-215.9745 471.621,-213.1742"/>
<polygon fill="#000000" stroke="#000000" points="475.1214,-213.1637 471.7588,-203.1166 468.122,-213.0677 475.1214,-213.1637"/>
</g>
<!-- Node_0xc0001ae540 -->
<g id="0xc0001ae540" class="node">
<title>Node_0xc0001ae540</title>
<path fill="#ffffff" stroke="#000000" d="M428.5264,-294.668C428.5264,-294.668 513.7432,-294.668 513.7432,-294.668 519.7432,-294.668 525.7432,-300.668 525.7432,-306.668 525.7432,-306.668 525.7432,-336.668 525.7432,-336.668 525.7432,-342.668 519.7432,-348.668 513.7432,-348.668 513.7432,-348.668 428.5264,-348.668 428.5264,-348.668 422.5264,-348.668 416.5264,-342.668 416.5264,-336.668 416.5264,-336.668 416.5264,-306.668 416.5264,-306.668 416.5264,-300.668 422.5264,-294.668 428.5264,-294.668"/>
<text text-anchor="middle" x="453.1348" y="-336.668" font-family="Times,serif" font-size="10.00" fill="#000000">sigmoid(%17)</text>
<polyline fill="none" stroke="#000000" points="489.7432,-330.668 489.7432,-348.668 "/>
<text text-anchor="middle" x="507.7432" y="-336.668" font-family="Times,serif" font-size="10.00" fill="#000000">0x18</text>
<polyline fill="none" stroke="#000000" points="416.5264,-330.668 525.7432,-330.668 "/>
<text text-anchor="middle" x="438.6372" y="-318.668" font-family="Times,serif" font-size="10.00" fill="#000000">Op</text>
<polyline fill="none" stroke="#000000" points="460.748,-312.668 460.748,-330.668 "/>
<text text-anchor="middle" x="492.8613" y="-318.668" font-family="Times,serif" font-size="10.00" fill="#000000">sigmoid</text>
<polyline fill="none" stroke="#000000" points="416.5264,-312.668 525.7432,-312.668 "/>
<text text-anchor="middle" x="446.7456" y="-300.668" font-family="Times,serif" font-size="10.00" fill="#000000">Shape</text>
<polyline fill="none" stroke="#000000" points="476.9648,-294.668 476.9648,-312.668 "/>
<text text-anchor="middle" x="501.2949" y="-300.668" font-family="Times,serif" font-size="10.00" fill="#000000">(5)</text>
</g>
<!-- Node_0xc0001ae540&#45;&gt;Node_0xc0001ae460 -->
<g id="edge18" class="edge">
<title>Node_0xc0001ae540&#45;&gt;Node_0xc0001ae460</title>
<path fill="none" stroke="#000000" d="M471.1348,-294.4855C471.1348,-291.767 471.1348,-288.9745 471.1348,-286.1742"/>
<polygon fill="#000000" stroke="#000000" points="474.6349,-286.1166 471.1348,-276.1166 467.6349,-286.1167 474.6349,-286.1166"/>
</g>
<!-- Node_0xc0001ae620 -->
<g id="0xc0001ae620" class="node">
<title>Node_0xc0001ae620</title>
<path fill="#ffffff" stroke="#000000" d="M932.8174,-294.668C932.8174,-294.668 1021.4521,-294.668 1021.4521,-294.668 1027.4521,-294.668 1033.4521,-300.668 1033.4521,-306.668 1033.4521,-306.668 1033.4521,-336.668 1033.4521,-336.668 1033.4521,-342.668 1027.4521,-348.668 1021.4521,-348.668 1021.4521,-348.668 932.8174,-348.668 932.8174,-348.668 926.8174,-348.668 920.8174,-342.668 920.8174,-336.668 920.8174,-336.668 920.8174,-306.668 920.8174,-306.668 920.8174,-300.668 926.8174,-294.668 932.8174,-294.668"/>
<text text-anchor="middle" x="959.1348" y="-336.668" font-family="Times,serif" font-size="10.00" fill="#000000">A × b(%5, %0)</text>
<polyline fill="none" stroke="#000000" points="997.4521,-330.668 997.4521,-348.668 "/>
<text text-anchor="middle" x="1015.4521" y="-336.668" font-family="Times,serif" font-size="10.00" fill="#000000">0x19</text>
<polyline fill="none" stroke="#000000" points="920.8174,-330.668 1033.4521,-330.668 "/>
<text text-anchor="middle" x="946.4282" y="-318.668" font-family="Times,serif" font-size="10.00" fill="#000000">Op</text>
<polyline fill="none" stroke="#000000" points="972.0391,-312.668 972.0391,-330.668 "/>
<text text-anchor="middle" x="1002.6963" y="-318.668" font-family="Times,serif" font-size="10.00" fill="#000000">A × b</text>
<polyline fill="none" stroke="#000000" points="920.8174,-312.668 1033.4521,-312.668 "/>
<text text-anchor="middle" x="952.0366" y="-300.668" font-family="Times,serif" font-size="10.00" fill="#000000">Shape</text>
<polyline fill="none" stroke="#000000" points="983.2559,-294.668 983.2559,-312.668 "/>
<text text-anchor="middle" x="1008.0859" y="-300.668" font-family="Times,serif" font-size="10.00" fill="#000000">(5)</text>
</g>
<!-- Node_0xc0001ae620&#45;&gt;Node_0xc0000a8ee0 -->
<g id="edge19" class="edge">
<title>Node_0xc0001ae620&#45;&gt;Node_0xc0000a8ee0</title>
<path fill="none" stroke="#000000" d="M1024.5362,-294.4979C1103.1727,-246.2138 1245.0612,-143.3777 1172.1348,-67.168 1156.0095,-50.3167 996.7134,-61.7992 946.4286,-56.0476"/>
<polygon fill="#000000" stroke="#000000" points="946.8147,-52.5613 936.3549,-54.2479 945.5835,-59.4522 946.8147,-52.5613"/>
</g>
<!-- Node_0xc0001ae620&#45;&gt;Node_0xc0000a9340 -->
<g id="edge20" class="edge">
<title>Node_0xc0001ae620&#45;&gt;Node_0xc0000a9340</title>
<path fill="none" stroke="#000000" d="M1033.7114,-297.304C1036.549,-296.2165 1039.3681,-295.1649 1042.1348,-294.168 1068.3271,-284.7301 1078.0905,-290.2031 1102.1348,-276.168 1191.3754,-224.0766 1261.8281,-121.0367 1295.1455,-65.7335"/>
<polygon fill="#000000" stroke="#000000" points="1298.2606,-67.3426 1300.3614,-56.9581 1292.2433,-63.766 1298.2606,-67.3426"/>
</g>
<!-- Node_0xc0001ae700 -->
<g id="0xc0001ae700" class="node">
<title>Node_0xc0001ae700</title>
<path fill="#ffffff" stroke="#000000" d="M1063.0981,-294.668C1063.0981,-294.668 1151.1714,-294.668 1151.1714,-294.668 1157.1714,-294.668 1163.1714,-300.668 1163.1714,-306.668 1163.1714,-306.668 1163.1714,-336.668 1163.1714,-336.668 1163.1714,-342.668 1157.1714,-348.668 1151.1714,-348.668 1151.1714,-348.668 1063.0981,-348.668 1063.0981,-348.668 1057.0981,-348.668 1051.0981,-342.668 1051.0981,-336.668 1051.0981,-336.668 1051.0981,-306.668 1051.0981,-306.668 1051.0981,-300.668 1057.0981,-294.668 1063.0981,-294.668"/>
<text text-anchor="middle" x="1089.4155" y="-336.668" font-family="Times,serif" font-size="10.00" fill="#000000">A × b(%9, %1)</text>
<polyline fill="none" stroke="#000000" points="1127.7329,-330.668 1127.7329,-348.668 "/>
<text text-anchor="middle" x="1145.4521" y="-336.668" font-family="Times,serif" font-size="10.00" fill="#000000">0x1a</text>
<polyline fill="none" stroke="#000000" points="1051.0981,-330.668 1163.1714,-330.668 "/>
<text text-anchor="middle" x="1076.209" y="-318.668" font-family="Times,serif" font-size="10.00" fill="#000000">Op</text>
<polyline fill="none" stroke="#000000" points="1101.3198,-312.668 1101.3198,-330.668 "/>
<text text-anchor="middle" x="1131.9771" y="-318.668" font-family="Times,serif" font-size="10.00" fill="#000000">A × b</text>
<polyline fill="none" stroke="#000000" points="1051.0981,-312.668 1163.1714,-312.668 "/>
<text text-anchor="middle" x="1081.8174" y="-300.668" font-family="Times,serif" font-size="10.00" fill="#000000">Shape</text>
<polyline fill="none" stroke="#000000" points="1112.5366,-294.668 1112.5366,-312.668 "/>
<text text-anchor="middle" x="1137.3667" y="-300.668" font-family="Times,serif" font-size="10.00" fill="#000000">(5)</text>
</g>
<!-- Node_0xc0001ae700&#45;&gt;Node_0xc0000a8fc0 -->
<g id="edge21" class="edge">
<title>Node_0xc0001ae700&#45;&gt;Node_0xc0000a8fc0</title>
<path fill="none" stroke="#000000" d="M1163.2881,-308.1391C1179.5801,-301.3281 1195.5474,-291.1895 1205.1348,-276.168 1255.109,-197.8678 1263.7375,-139.2378 1205.1348,-67.168 1192.9979,-52.242 1180.8346,-61.6997 1158.1467,-56.5931"/>
<polygon fill="#000000" stroke="#000000" points="1159.1152,-53.2295 1148.5307,-53.6985 1157.0974,-59.9324 1159.1152,-53.2295"/>
</g>
<!-- Node_0xc0001ae700&#45;&gt;Node_0xc0000a97a0 -->
<g id="edge22" class="edge">
<title>Node_0xc0001ae700&#45;&gt;Node_0xc0000a97a0</title>
<path fill="none" stroke="#000000" d="M1163.2043,-308.9115C1186.3381,-301.8233 1212.503,-291.2953 1233.1348,-276.168 1311.6685,-218.5868 1373.2377,-119.5027 1402.8484,-65.799"/>
<polygon fill="#000000" stroke="#000000" points="1405.9577,-67.4076 1407.6637,-56.951 1399.8092,-64.0614 1405.9577,-67.4076"/>
</g>
<!-- Node_0xc0001ae7e0 -->
<g id="0xc0001ae7e0" class="node">
<title>Node_0xc0001ae7e0</title>
<path fill="#ffffff" stroke="#000000" d="M958.7471,-368.5029C958.7471,-368.5029 1061.5225,-368.5029 1061.5225,-368.5029 1067.5225,-368.5029 1073.5225,-374.5029 1073.5225,-380.5029 1073.5225,-380.5029 1073.5225,-410.5029 1073.5225,-410.5029 1073.5225,-416.5029 1067.5225,-422.5029 1061.5225,-422.5029 1061.5225,-422.5029 958.7471,-422.5029 958.7471,-422.5029 952.7471,-422.5029 946.7471,-416.5029 946.7471,-410.5029 946.7471,-410.5029 946.7471,-380.5029 946.7471,-380.5029 946.7471,-374.5029 952.7471,-368.5029 958.7471,-368.5029"/>
<text text-anchor="middle" x="992.1348" y="-410.5029" font-family="Times,serif" font-size="10.00" fill="#000000">+ false(%19, %1a)</text>
<polyline fill="none" stroke="#000000" points="1037.5225,-404.5029 1037.5225,-422.5029 "/>
<text text-anchor="middle" x="1055.5225" y="-410.5029" font-family="Times,serif" font-size="10.00" fill="#000000">0x1b</text>
<polyline fill="none" stroke="#000000" points="946.7471,-404.5029 1073.5225,-404.5029 "/>
<text text-anchor="middle" x="974.3579" y="-392.5029" font-family="Times,serif" font-size="10.00" fill="#000000">Op</text>
<polyline fill="none" stroke="#000000" points="1001.9688,-386.5029 1001.9688,-404.5029 "/>
<text text-anchor="middle" x="1037.4771" y="-392.5029" font-family="Times,serif" font-size="10.00" fill="#000000">+ false</text>
<polyline fill="none" stroke="#000000" points="946.7471,-386.5029 1073.5225,-386.5029 "/>
<text text-anchor="middle" x="981.4663" y="-374.5029" font-family="Times,serif" font-size="10.00" fill="#000000">Shape</text>
<polyline fill="none" stroke="#000000" points="1016.1855,-368.5029 1016.1855,-386.5029 "/>
<text text-anchor="middle" x="1044.5156" y="-374.5029" font-family="Times,serif" font-size="10.00" fill="#000000">(5)</text>
</g>
<!-- Node_0xc0001ae7e0&#45;&gt;Node_0xc0001ae620 -->
<g id="edge23" class="edge">
<title>Node_0xc0001ae7e0&#45;&gt;Node_0xc0001ae620</title>
<path fill="none" stroke="#000000" d="M998.0342,-368.4288C996.5097,-365.0179 994.9312,-361.486 993.356,-357.9618"/>
<polygon fill="#000000" stroke="#000000" points="996.5098,-356.4403 989.2339,-348.7389 990.119,-359.2967 996.5098,-356.4403"/>
</g>
<!-- Node_0xc0001ae7e0&#45;&gt;Node_0xc0001ae700 -->
<g id="edge24" class="edge">
<title>Node_0xc0001ae7e0&#45;&gt;Node_0xc0001ae700</title>
<path fill="none" stroke="#000000" d="M1045.7032,-368.4288C1051.5022,-364.0147 1057.5673,-359.398 1063.5325,-354.8574"/>
<polygon fill="#000000" stroke="#000000" points="1065.7334,-357.5807 1071.5706,-348.7389 1061.4936,-352.0107 1065.7334,-357.5807"/>
</g>
<!-- Node_0xc0001ae8c0 -->
<g id="0xc0001ae8c0" class="node">
<title>Node_0xc0001ae8c0</title>
<path fill="#ffffff" stroke="#000000" d="M961.2471,-442.3379C961.2471,-442.3379 1059.0225,-442.3379 1059.0225,-442.3379 1065.0225,-442.3379 1071.0225,-448.3379 1071.0225,-454.3379 1071.0225,-454.3379 1071.0225,-484.3379 1071.0225,-484.3379 1071.0225,-490.3379 1065.0225,-496.3379 1059.0225,-496.3379 1059.0225,-496.3379 961.2471,-496.3379 961.2471,-496.3379 955.2471,-496.3379 949.2471,-490.3379 949.2471,-484.3379 949.2471,-484.3379 949.2471,-454.3379 949.2471,-454.3379 949.2471,-448.3379 955.2471,-442.3379 961.2471,-442.3379"/>
<text text-anchor="middle" x="992.4155" y="-484.3379" font-family="Times,serif" font-size="10.00" fill="#000000">+ false(%1b, %d)</text>
<polyline fill="none" stroke="#000000" points="1035.584,-478.3379 1035.584,-496.3379 "/>
<text text-anchor="middle" x="1053.3032" y="-484.3379" font-family="Times,serif" font-size="10.00" fill="#000000">0x1c</text>
<polyline fill="none" stroke="#000000" points="949.2471,-478.3379 1071.0225,-478.3379 "/>
<text text-anchor="middle" x="975.8579" y="-466.3379" font-family="Times,serif" font-size="10.00" fill="#000000">Op</text>
<polyline fill="none" stroke="#000000" points="1002.4688,-460.3379 1002.4688,-478.3379 "/>
<text text-anchor="middle" x="1036.4771" y="-466.3379" font-family="Times,serif" font-size="10.00" fill="#000000">+ false</text>
<polyline fill="none" stroke="#000000" points="949.2471,-460.3379 1071.0225,-460.3379 "/>
<text text-anchor="middle" x="982.4663" y="-448.3379" font-family="Times,serif" font-size="10.00" fill="#000000">Shape</text>
<polyline fill="none" stroke="#000000" points="1015.6855,-442.3379 1015.6855,-460.3379 "/>
<text text-anchor="middle" x="1043.0156" y="-448.3379" font-family="Times,serif" font-size="10.00" fill="#000000">(5)</text>
</g>
<!-- Node_0xc0001ae8c0&#45;&gt;Node_0xc0000a9b20 -->
<g id="edge25" class="edge">
<title>Node_0xc0001ae8c0&#45;&gt;Node_0xc0000a9b20</title>
<path fill="none" stroke="#000000" d="M1071.0792,-464.8759C1208.0083,-453.1776 1528.1348,-415.7659 1528.1348,-321.668 1528.1348,-321.668 1528.1348,-321.668 1528.1348,-175.668 1528.1348,-138.8252 1528.1348,-96.7912 1528.1348,-67.1204"/>
<polygon fill="#000000" stroke="#000000" points="1531.6349,-66.7809 1528.1348,-56.781 1524.6349,-66.781 1531.6349,-66.7809"/>
</g>
<!-- Node_0xc0001ae8c0&#45;&gt;Node_0xc0001ae7e0 -->
<g id="edge26" class="edge">
<title>Node_0xc0001ae8c0&#45;&gt;Node_0xc0001ae7e0</title>
<path fill="none" stroke="#000000" d="M1010.1348,-442.2637C1010.1348,-439.1538 1010.1348,-435.9433 1010.1348,-432.7297"/>
<polygon fill="#000000" stroke="#000000" points="1013.6349,-432.5738 1010.1348,-422.5738 1006.6349,-432.5739 1013.6349,-432.5738"/>
</g>
<!-- Node_0xc0001ae9a0 -->
<g id="0xc0001ae9a0" class="node">
<title>Node_0xc0001ae9a0</title>
<path fill="#ffffff" stroke="#000000" d="M947.8071,-515.3379C947.8071,-515.3379 1032.4624,-515.3379 1032.4624,-515.3379 1038.4624,-515.3379 1044.4624,-521.3379 1044.4624,-527.3379 1044.4624,-527.3379 1044.4624,-557.3379 1044.4624,-557.3379 1044.4624,-563.3379 1038.4624,-569.3379 1032.4624,-569.3379 1032.4624,-569.3379 947.8071,-569.3379 947.8071,-569.3379 941.8071,-569.3379 935.8071,-563.3379 935.8071,-557.3379 935.8071,-557.3379 935.8071,-527.3379 935.8071,-527.3379 935.8071,-521.3379 941.8071,-515.3379 947.8071,-515.3379"/>
<text text-anchor="middle" x="972.1348" y="-557.3379" font-family="Times,serif" font-size="10.00" fill="#000000">sigmoid(%1c)</text>
<polyline fill="none" stroke="#000000" points="1008.4624,-551.3379 1008.4624,-569.3379 "/>
<text text-anchor="middle" x="1026.4624" y="-557.3379" font-family="Times,serif" font-size="10.00" fill="#000000">0x1d</text>
<polyline fill="none" stroke="#000000" points="935.8071,-551.3379 1044.4624,-551.3379 "/>
<text text-anchor="middle" x="957.918" y="-539.3379" font-family="Times,serif" font-size="10.00" fill="#000000">Op</text>
<polyline fill="none" stroke="#000000" points="980.0288,-533.3379 980.0288,-551.3379 "/>
<text text-anchor="middle" x="1012.1421" y="-539.3379" font-family="Times,serif" font-size="10.00" fill="#000000">sigmoid</text>
<polyline fill="none" stroke="#000000" points="935.8071,-533.3379 1044.4624,-533.3379 "/>
<text text-anchor="middle" x="966.0264" y="-521.3379" font-family="Times,serif" font-size="10.00" fill="#000000">Shape</text>
<polyline fill="none" stroke="#000000" points="996.2456,-515.3379 996.2456,-533.3379 "/>
<text text-anchor="middle" x="1020.0757" y="-521.3379" font-family="Times,serif" font-size="10.00" fill="#000000">(5)</text>
</g>
<!-- Node_0xc0001ae9a0&#45;&gt;Node_0xc0001ae8c0 -->
<g id="edge27" class="edge">
<title>Node_0xc0001ae9a0&#45;&gt;Node_0xc0001ae8c0</title>
<path fill="none" stroke="#000000" d="M997.582,-515.1554C998.3525,-512.3431 999.1447,-509.4518 999.9385,-506.5544"/>
<polygon fill="#000000" stroke="#000000" points="1003.3478,-507.356 1002.6146,-496.7866 996.5966,-505.5063 1003.3478,-507.356"/>
</g>
<!-- Node_0xc0001aea80 -->
<g id="0xc0001aea80" class="node">
<title>Node_0xc0001aea80</title>
<path fill="#ffffff" stroke="#000000" d="M681.0981,-75.668C681.0981,-75.668 769.1714,-75.668 769.1714,-75.668 775.1714,-75.668 781.1714,-81.668 781.1714,-87.668 781.1714,-87.668 781.1714,-117.668 781.1714,-117.668 781.1714,-123.668 775.1714,-129.668 769.1714,-129.668 769.1714,-129.668 681.0981,-129.668 681.0981,-129.668 675.0981,-129.668 669.0981,-123.668 669.0981,-117.668 669.0981,-117.668 669.0981,-87.668 669.0981,-87.668 669.0981,-81.668 675.0981,-75.668 681.0981,-75.668"/>
<text text-anchor="middle" x="707.4155" y="-117.668" font-family="Times,serif" font-size="10.00" fill="#000000">A × b(%6, %0)</text>
<polyline fill="none" stroke="#000000" points="745.7329,-111.668 745.7329,-129.668 "/>
<text text-anchor="middle" x="763.4521" y="-117.668" font-family="Times,serif" font-size="10.00" fill="#000000">0x1e</text>
<polyline fill="none" stroke="#000000" points="669.0981,-111.668 781.1714,-111.668 "/>
<text text-anchor="middle" x="694.209" y="-99.668" font-family="Times,serif" font-size="10.00" fill="#000000">Op</text>
<polyline fill="none" stroke="#000000" points="719.3198,-93.668 719.3198,-111.668 "/>
<text text-anchor="middle" x="749.9771" y="-99.668" font-family="Times,serif" font-size="10.00" fill="#000000">A × b</text>
<polyline fill="none" stroke="#000000" points="669.0981,-93.668 781.1714,-93.668 "/>
<text text-anchor="middle" x="699.8174" y="-81.668" font-family="Times,serif" font-size="10.00" fill="#000000">Shape</text>
<polyline fill="none" stroke="#000000" points="730.5366,-75.668 730.5366,-93.668 "/>
<text text-anchor="middle" x="755.3667" y="-81.668" font-family="Times,serif" font-size="10.00" fill="#000000">(5)</text>
</g>
<!-- Node_0xc0001aea80&#45;&gt;Node_0xc0000a8ee0 -->
<g id="edge28" class="edge">
<title>Node_0xc0001aea80&#45;&gt;Node_0xc0000a8ee0</title>
<path fill="none" stroke="#000000" d="M770.8569,-75.5181C777.1984,-72.4016 783.7346,-69.5086 790.1348,-67.168 808.5631,-60.4286 816.3581,-63.7015 838.2312,-56.969"/>
<polygon fill="#000000" stroke="#000000" points="839.4166,-60.2627 847.7438,-53.7122 837.1492,-53.6401 839.4166,-60.2627"/>
</g>
<!-- Node_0xc0001aea80&#45;&gt;Node_0xc0000a9420 -->
<g id="edge29" class="edge">
<title>Node_0xc0001aea80&#45;&gt;Node_0xc0000a9420</title>
<path fill="none" stroke="#000000" d="M708.6339,-75.5025C706.4328,-71.8788 704.1491,-68.119 701.8757,-64.3763"/>
<polygon fill="#000000" stroke="#000000" points="704.8165,-62.476 696.6336,-55.7462 698.8337,-66.1101 704.8165,-62.476"/>
</g>
<!-- Node_0xc0001aeb60 -->
<g id="0xc0001aeb60" class="node">
<title>Node_0xc0001aeb60</title>
<path fill="#ffffff" stroke="#000000" d="M810.9331,-75.668C810.9331,-75.668 897.3364,-75.668 897.3364,-75.668 903.3364,-75.668 909.3364,-81.668 909.3364,-87.668 909.3364,-87.668 909.3364,-117.668 909.3364,-117.668 909.3364,-123.668 903.3364,-129.668 897.3364,-129.668 897.3364,-129.668 810.9331,-129.668 810.9331,-129.668 804.9331,-129.668 798.9331,-123.668 798.9331,-117.668 798.9331,-117.668 798.9331,-87.668 798.9331,-87.668 798.9331,-81.668 804.9331,-75.668 810.9331,-75.668"/>
<text text-anchor="middle" x="836.9697" y="-117.668" font-family="Times,serif" font-size="10.00" fill="#000000">A × b(%a, %1)</text>
<polyline fill="none" stroke="#000000" points="875.0063,-111.668 875.0063,-129.668 "/>
<text text-anchor="middle" x="892.1714" y="-117.668" font-family="Times,serif" font-size="10.00" fill="#000000">0x1f</text>
<polyline fill="none" stroke="#000000" points="798.9331,-111.668 909.3364,-111.668 "/>
<text text-anchor="middle" x="823.5439" y="-99.668" font-family="Times,serif" font-size="10.00" fill="#000000">Op</text>
<polyline fill="none" stroke="#000000" points="848.1548,-93.668 848.1548,-111.668 "/>
<text text-anchor="middle" x="878.312" y="-99.668" font-family="Times,serif" font-size="10.00" fill="#000000">A × b</text>
<polyline fill="none" stroke="#000000" points="798.9331,-93.668 909.3364,-93.668 "/>
<text text-anchor="middle" x="829.6523" y="-81.668" font-family="Times,serif" font-size="10.00" fill="#000000">Shape</text>
<polyline fill="none" stroke="#000000" points="860.3716,-75.668 860.3716,-93.668 "/>
<text text-anchor="middle" x="884.7017" y="-81.668" font-family="Times,serif" font-size="10.00" fill="#000000">(5)</text>
</g>
<!-- Node_0xc0001aeb60&#45;&gt;Node_0xc0000a8fc0 -->
<g id="edge30" class="edge">
<title>Node_0xc0001aeb60&#45;&gt;Node_0xc0000a8fc0</title>
<path fill="none" stroke="#000000" d="M897.0976,-75.6002C903.9284,-72.258 911.0746,-69.2805 918.1348,-67.168 972.0411,-51.0381 992.1863,-71.5275 1050.2319,-56.8156"/>
<polygon fill="#000000" stroke="#000000" points="1051.1819,-60.1843 1059.8842,-54.1412 1049.3127,-53.4385 1051.1819,-60.1843"/>
</g>
<!-- Node_0xc0001aeb60&#45;&gt;Node_0xc0000a9880 -->
<g id="edge31" class="edge">
<title>Node_0xc0001aeb60&#45;&gt;Node_0xc0000a9880</title>
<path fill="none" stroke="#000000" d="M829.2002,-75.5025C825.5045,-71.4761 821.6546,-67.2818 817.8433,-63.1295"/>
<polygon fill="#000000" stroke="#000000" points="820.4069,-60.7466 811.0663,-55.7462 815.2499,-65.48 820.4069,-60.7466"/>
</g>
<!-- Node_0xc0001aec40 -->
<g id="0xc0001aec40" class="node">
<title>Node_0xc0001aec40</title>
<path fill="#ffffff" stroke="#000000" d="M674.582,-148.668C674.582,-148.668 775.6875,-148.668 775.6875,-148.668 781.6875,-148.668 787.6875,-154.668 787.6875,-160.668 787.6875,-160.668 787.6875,-190.668 787.6875,-190.668 787.6875,-196.668 781.6875,-202.668 775.6875,-202.668 775.6875,-202.668 674.582,-202.668 674.582,-202.668 668.582,-202.668 662.582,-196.668 662.582,-190.668 662.582,-190.668 662.582,-160.668 662.582,-160.668 662.582,-154.668 668.582,-148.668 674.582,-148.668"/>
<text text-anchor="middle" x="707.1348" y="-190.668" font-family="Times,serif" font-size="10.00" fill="#000000">+ false(%1e, %1f)</text>
<polyline fill="none" stroke="#000000" points="751.6875,-184.668 751.6875,-202.668 "/>
<text text-anchor="middle" x="769.6875" y="-190.668" font-family="Times,serif" font-size="10.00" fill="#000000">0x20</text>
<polyline fill="none" stroke="#000000" points="662.582,-184.668 787.6875,-184.668 "/>
<text text-anchor="middle" x="689.6929" y="-172.668" font-family="Times,serif" font-size="10.00" fill="#000000">Op</text>
<polyline fill="none" stroke="#000000" points="716.8037,-166.668 716.8037,-184.668 "/>
<text text-anchor="middle" x="751.812" y="-172.668" font-family="Times,serif" font-size="10.00" fill="#000000">+ false</text>
<polyline fill="none" stroke="#000000" points="662.582,-166.668 787.6875,-166.668 "/>
<text text-anchor="middle" x="696.8013" y="-154.668" font-family="Times,serif" font-size="10.00" fill="#000000">Shape</text>
<polyline fill="none" stroke="#000000" points="731.0205,-148.668 731.0205,-166.668 "/>
<text text-anchor="middle" x="759.3506" y="-154.668" font-family="Times,serif" font-size="10.00" fill="#000000">(5)</text>
</g>
<!-- Node_0xc0001aec40&#45;&gt;Node_0xc0001aea80 -->
<g id="edge32" class="edge">
<title>Node_0xc0001aec40&#45;&gt;Node_0xc0001aea80</title>
<path fill="none" stroke="#000000" d="M725.1348,-148.4855C725.1348,-145.767 725.1348,-142.9745 725.1348,-140.1742"/>
<polygon fill="#000000" stroke="#000000" points="728.6349,-140.1166 725.1348,-130.1166 721.6349,-140.1167 728.6349,-140.1166"/>
</g>
<!-- Node_0xc0001aec40&#45;&gt;Node_0xc0001aeb60 -->
<g id="edge33" class="edge">
<title>Node_0xc0001aec40&#45;&gt;Node_0xc0001aeb60</title>
<path fill="none" stroke="#000000" d="M773.1696,-148.4855C780.9766,-144.0676 789.1284,-139.4545 797.1247,-134.9295"/>
<polygon fill="#000000" stroke="#000000" points="799.0805,-137.8443 806.0598,-129.8732 795.6329,-131.7521 799.0805,-137.8443"/>
</g>
<!-- Node_0xc0001aed20 -->
<g id="0xc0001aed20" class="node">
<title>Node_0xc0001aed20</title>
<path fill="#ffffff" stroke="#000000" d="M667.2471,-221.668C667.2471,-221.668 765.0225,-221.668 765.0225,-221.668 771.0225,-221.668 777.0225,-227.668 777.0225,-233.668 777.0225,-233.668 777.0225,-263.668 777.0225,-263.668 777.0225,-269.668 771.0225,-275.668 765.0225,-275.668 765.0225,-275.668 667.2471,-275.668 667.2471,-275.668 661.2471,-275.668 655.2471,-269.668 655.2471,-263.668 655.2471,-263.668 655.2471,-233.668 655.2471,-233.668 655.2471,-227.668 661.2471,-221.668 667.2471,-221.668"/>
<text text-anchor="middle" x="698.1348" y="-263.668" font-family="Times,serif" font-size="10.00" fill="#000000">+ false(%20, %e)</text>
<polyline fill="none" stroke="#000000" points="741.0225,-257.668 741.0225,-275.668 "/>
<text text-anchor="middle" x="759.0225" y="-263.668" font-family="Times,serif" font-size="10.00" fill="#000000">0x21</text>
<polyline fill="none" stroke="#000000" points="655.2471,-257.668 777.0225,-257.668 "/>
<text text-anchor="middle" x="681.8579" y="-245.668" font-family="Times,serif" font-size="10.00" fill="#000000">Op</text>
<polyline fill="none" stroke="#000000" points="708.4688,-239.668 708.4688,-257.668 "/>
<text text-anchor="middle" x="742.4771" y="-245.668" font-family="Times,serif" font-size="10.00" fill="#000000">+ false</text>
<polyline fill="none" stroke="#000000" points="655.2471,-239.668 777.0225,-239.668 "/>
<text text-anchor="middle" x="688.4663" y="-227.668" font-family="Times,serif" font-size="10.00" fill="#000000">Shape</text>
<polyline fill="none" stroke="#000000" points="721.6855,-221.668 721.6855,-239.668 "/>
<text text-anchor="middle" x="749.0156" y="-227.668" font-family="Times,serif" font-size="10.00" fill="#000000">(5)</text>
</g>
<!-- Node_0xc0001aed20&#45;&gt;Node_0xc0000a9c00 -->
<g id="edge34" class="edge">
<title>Node_0xc0001aed20&#45;&gt;Node_0xc0000a9c00</title>
<path fill="none" stroke="#000000" d="M655.1217,-238.1158C621.5574,-232.5542 579.1284,-225.9201 541.1348,-221.168 498.3928,-215.8219 383.9419,-227.1118 348.1348,-203.168 300.6133,-171.3909 275.9554,-106.8685 264.5452,-65.7873"/>
<polygon fill="#000000" stroke="#000000" points="267.8658,-64.6539 261.9238,-55.8821 261.0988,-66.4448 267.8658,-64.6539"/>
</g>
<!-- Node_0xc0001aed20&#45;&gt;Node_0xc0001aec40 -->
<g id="edge35" class="edge">
<title>Node_0xc0001aed20&#45;&gt;Node_0xc0001aec40</title>
<path fill="none" stroke="#000000" d="M719.486,-221.4855C719.8212,-218.767 720.1655,-215.9745 720.5107,-213.1742"/>
<polygon fill="#000000" stroke="#000000" points="724.0007,-213.4698 721.7507,-203.1166 717.0533,-212.6132 724.0007,-213.4698"/>
</g>
<!-- Node_0xc0001aee00 -->
<g id="0xc0001aee00" class="node">
<title>Node_0xc0001aee00</title>
<path fill="#ffffff" stroke="#000000" d="M691.0313,-294.668C691.0313,-294.668 761.2383,-294.668 761.2383,-294.668 767.2383,-294.668 773.2383,-300.668 773.2383,-306.668 773.2383,-306.668 773.2383,-336.668 773.2383,-336.668 773.2383,-342.668 767.2383,-348.668 761.2383,-348.668 761.2383,-348.668 691.0313,-348.668 691.0313,-348.668 685.0313,-348.668 679.0313,-342.668 679.0313,-336.668 679.0313,-336.668 679.0313,-306.668 679.0313,-306.668 679.0313,-300.668 685.0313,-294.668 691.0313,-294.668"/>
<text text-anchor="middle" x="708.1348" y="-336.668" font-family="Times,serif" font-size="10.00" fill="#000000">tanh(%21)</text>
<polyline fill="none" stroke="#000000" points="737.2383,-330.668 737.2383,-348.668 "/>
<text text-anchor="middle" x="755.2383" y="-336.668" font-family="Times,serif" font-size="10.00" fill="#000000">0x22</text>
<polyline fill="none" stroke="#000000" points="679.0313,-330.668 773.2383,-330.668 "/>
<text text-anchor="middle" x="701.1421" y="-318.668" font-family="Times,serif" font-size="10.00" fill="#000000">Op</text>
<polyline fill="none" stroke="#000000" points="723.2529,-312.668 723.2529,-330.668 "/>
<text text-anchor="middle" x="747.8613" y="-318.668" font-family="Times,serif" font-size="10.00" fill="#000000">tanh</text>
<polyline fill="none" stroke="#000000" points="679.0313,-312.668 773.2383,-312.668 "/>
<text text-anchor="middle" x="705.7505" y="-300.668" font-family="Times,serif" font-size="10.00" fill="#000000">Shape</text>
<polyline fill="none" stroke="#000000" points="732.4697,-294.668 732.4697,-312.668 "/>
<text text-anchor="middle" x="752.7998" y="-300.668" font-family="Times,serif" font-size="10.00" fill="#000000">(5)</text>
</g>
<!-- Node_0xc0001aee00&#45;&gt;Node_0xc0001aed20 -->
<g id="edge36" class="edge">
<title>Node_0xc0001aee00&#45;&gt;Node_0xc0001aed20</title>
<path fill="none" stroke="#000000" d="M722.4111,-294.4855C722.0387,-291.767 721.6562,-288.9745 721.2726,-286.1742"/>
<polygon fill="#000000" stroke="#000000" points="724.7197,-285.5491 719.8949,-276.1166 717.7845,-286.4992 724.7197,-285.5491"/>
</g>
<!-- Node_0xc0001aeee0 -->
<g id="0xc0001aeee0" class="node">
<title>Node_0xc0001aeee0</title>
<path fill="#ffffff" stroke="#000000" d="M421.0044,-367.668C421.0044,-367.668 521.2651,-367.668 521.2651,-367.668 527.2651,-367.668 533.2651,-373.668 533.2651,-379.668 533.2651,-379.668 533.2651,-411.3379 533.2651,-411.3379 533.2651,-417.3379 527.2651,-423.3379 521.2651,-423.3379 521.2651,-423.3379 421.0044,-423.3379 421.0044,-423.3379 415.0044,-423.3379 409.0044,-417.3379 409.0044,-411.3379 409.0044,-411.3379 409.0044,-379.668 409.0044,-379.668 409.0044,-373.668 415.0044,-367.668 421.0044,-367.668"/>
<text text-anchor="middle" x="453.1348" y="-411.3379" font-family="Times,serif" font-size="10.00" fill="#000000">⊙ false(%18, %2)</text>
<polyline fill="none" stroke="#000000" points="497.2651,-404.5029 497.2651,-423.3379 "/>
<text text-anchor="middle" x="515.2651" y="-410.9204" font-family="Times,serif" font-size="10.00" fill="#000000">0x23</text>
<polyline fill="none" stroke="#000000" points="409.0044,-404.5029 533.2651,-404.5029 "/>
<text text-anchor="middle" x="435.6152" y="-392.0854" font-family="Times,serif" font-size="10.00" fill="#000000">Op</text>
<polyline fill="none" stroke="#000000" points="462.2261,-385.668 462.2261,-404.5029 "/>
<text text-anchor="middle" x="497.6963" y="-392.5029" font-family="Times,serif" font-size="10.00" fill="#000000">⊙ false</text>
<polyline fill="none" stroke="#000000" points="409.0044,-385.668 533.2651,-385.668 "/>
<text text-anchor="middle" x="443.2236" y="-373.668" font-family="Times,serif" font-size="10.00" fill="#000000">Shape</text>
<polyline fill="none" stroke="#000000" points="477.4429,-367.668 477.4429,-385.668 "/>
<text text-anchor="middle" x="505.2729" y="-373.668" font-family="Times,serif" font-size="10.00" fill="#000000">(5)</text>
</g>
<!-- Node_0xc0001aeee0&#45;&gt;Node_0xc0000a90a0 -->
<g id="edge37" class="edge">
<title>Node_0xc0001aeee0&#45;&gt;Node_0xc0000a90a0</title>
<path fill="none" stroke="#000000" d="M408.588,-387.2845C289.9846,-369.9408 44.1348,-324.8068 44.1348,-248.668 44.1348,-248.668 44.1348,-248.668 44.1348,-175.668 44.1348,-138.7114 44.1348,-96.5317 44.1348,-66.846"/>
<polygon fill="#000000" stroke="#000000" points="47.6349,-66.5073 44.1348,-56.5073 40.6349,-66.5074 47.6349,-66.5073"/>
</g>
<!-- Node_0xc0001aeee0&#45;&gt;Node_0xc0001ae540 -->
<g id="edge38" class="edge">
<title>Node_0xc0001aeee0&#45;&gt;Node_0xc0001ae540</title>
<path fill="none" stroke="#000000" d="M471.1348,-367.5891C471.1348,-364.8504 471.1348,-362.0414 471.1348,-359.2273"/>
<polygon fill="#000000" stroke="#000000" points="474.6349,-359.1318 471.1348,-349.1319 467.6349,-359.1319 474.6349,-359.1318"/>
</g>
<!-- Node_0xc0001aefc0 -->
<g id="0xc0001aefc0" class="node">
<title>Node_0xc0001aefc0</title>
<path fill="#ffffff" stroke="#000000" d="M760.5044,-367.668C760.5044,-367.668 865.7651,-367.668 865.7651,-367.668 871.7651,-367.668 877.7651,-373.668 877.7651,-379.668 877.7651,-379.668 877.7651,-411.3379 877.7651,-411.3379 877.7651,-417.3379 871.7651,-423.3379 865.7651,-423.3379 865.7651,-423.3379 760.5044,-423.3379 760.5044,-423.3379 754.5044,-423.3379 748.5044,-417.3379 748.5044,-411.3379 748.5044,-411.3379 748.5044,-379.668 748.5044,-379.668 748.5044,-373.668 754.5044,-367.668 760.5044,-367.668"/>
<text text-anchor="middle" x="795.1348" y="-411.3379" font-family="Times,serif" font-size="10.00" fill="#000000">⊙ false(%13, %22)</text>
<polyline fill="none" stroke="#000000" points="841.7651,-404.5029 841.7651,-423.3379 "/>
<text text-anchor="middle" x="859.7651" y="-410.9204" font-family="Times,serif" font-size="10.00" fill="#000000">0x24</text>
<polyline fill="none" stroke="#000000" points="748.5044,-404.5029 877.7651,-404.5029 "/>
<text text-anchor="middle" x="776.6152" y="-392.0854" font-family="Times,serif" font-size="10.00" fill="#000000">Op</text>
<polyline fill="none" stroke="#000000" points="804.7261,-385.668 804.7261,-404.5029 "/>
<text text-anchor="middle" x="841.1963" y="-392.5029" font-family="Times,serif" font-size="10.00" fill="#000000">⊙ false</text>
<polyline fill="none" stroke="#000000" points="748.5044,-385.668 877.7651,-385.668 "/>
<text text-anchor="middle" x="783.7236" y="-373.668" font-family="Times,serif" font-size="10.00" fill="#000000">Shape</text>
<polyline fill="none" stroke="#000000" points="818.9429,-367.668 818.9429,-385.668 "/>
<text text-anchor="middle" x="848.2729" y="-373.668" font-family="Times,serif" font-size="10.00" fill="#000000">(5)</text>
</g>
<!-- Node_0xc0001aefc0&#45;&gt;Node_0xc0001ae0e0 -->
<g id="edge39" class="edge">
<title>Node_0xc0001aefc0&#45;&gt;Node_0xc0001ae0e0</title>
<path fill="none" stroke="#000000" d="M825.9887,-367.5891C827.3803,-364.5671 828.8113,-361.4594 830.2414,-358.3539"/>
<polygon fill="#000000" stroke="#000000" points="833.4844,-359.6791 834.488,-349.1319 827.1261,-356.7511 833.4844,-359.6791"/>
</g>
<!-- Node_0xc0001aefc0&#45;&gt;Node_0xc0001aee00 -->
<g id="edge40" class="edge">
<title>Node_0xc0001aefc0&#45;&gt;Node_0xc0001aee00</title>
<path fill="none" stroke="#000000" d="M780.2438,-367.5891C775.6199,-363.6649 770.8256,-359.5961 766.0879,-355.5753"/>
<polygon fill="#000000" stroke="#000000" points="768.0971,-352.6899 758.2079,-348.8877 763.5676,-358.0269 768.0971,-352.6899"/>
</g>
<!-- Node_0xc0001af0a0 -->
<g id="0xc0001af0a0" class="node">
<title>Node_0xc0001af0a0</title>
<path fill="#ffffff" stroke="#000000" d="M761.4663,-442.3379C761.4663,-442.3379 864.8032,-442.3379 864.8032,-442.3379 870.8032,-442.3379 876.8032,-448.3379 876.8032,-454.3379 876.8032,-454.3379 876.8032,-484.3379 876.8032,-484.3379 876.8032,-490.3379 870.8032,-496.3379 864.8032,-496.3379 864.8032,-496.3379 761.4663,-496.3379 761.4663,-496.3379 755.4663,-496.3379 749.4663,-490.3379 749.4663,-484.3379 749.4663,-484.3379 749.4663,-454.3379 749.4663,-454.3379 749.4663,-448.3379 755.4663,-442.3379 761.4663,-442.3379"/>
<text text-anchor="middle" x="795.1348" y="-484.3379" font-family="Times,serif" font-size="10.00" fill="#000000">+ false(%23, %24)</text>
<polyline fill="none" stroke="#000000" points="840.8032,-478.3379 840.8032,-496.3379 "/>
<text text-anchor="middle" x="858.8032" y="-484.3379" font-family="Times,serif" font-size="10.00" fill="#000000">0x25</text>
<polyline fill="none" stroke="#000000" points="749.4663,-478.3379 876.8032,-478.3379 "/>
<text text-anchor="middle" x="777.5771" y="-466.3379" font-family="Times,serif" font-size="10.00" fill="#000000">Op</text>
<polyline fill="none" stroke="#000000" points="805.688,-460.3379 805.688,-478.3379 "/>
<text text-anchor="middle" x="841.1963" y="-466.3379" font-family="Times,serif" font-size="10.00" fill="#000000">+ false</text>
<polyline fill="none" stroke="#000000" points="749.4663,-460.3379 876.8032,-460.3379 "/>
<text text-anchor="middle" x="784.1855" y="-448.3379" font-family="Times,serif" font-size="10.00" fill="#000000">Shape</text>
<polyline fill="none" stroke="#000000" points="818.9048,-442.3379 818.9048,-460.3379 "/>
<text text-anchor="middle" x="847.7349" y="-448.3379" font-family="Times,serif" font-size="10.00" fill="#000000">(5)</text>
</g>
<!-- Node_0xc0001af0a0&#45;&gt;Node_0xc0001aeee0 -->
<g id="edge41" class="edge">
<title>Node_0xc0001af0a0&#45;&gt;Node_0xc0001aeee0</title>
<path fill="none" stroke="#000000" d="M749.2084,-455.5367C690.6955,-442.9043 604.1944,-424.2294 543.2392,-411.0697"/>
<polygon fill="#000000" stroke="#000000" points="543.8192,-407.6143 533.3058,-408.9251 542.342,-414.4567 543.8192,-407.6143"/>
</g>
<!-- Node_0xc0001af0a0&#45;&gt;Node_0xc0001aefc0 -->
<g id="edge42" class="edge">
<title>Node_0xc0001af0a0&#45;&gt;Node_0xc0001aefc0</title>
<path fill="none" stroke="#000000" d="M813.1348,-442.2637C813.1348,-439.5036 813.1348,-436.6643 813.1348,-433.814"/>
<polygon fill="#000000" stroke="#000000" points="816.6349,-433.5648 813.1348,-423.5648 809.6349,-433.5649 816.6349,-433.5648"/>
</g>
<!-- Node_0xc0001af180 -->
<g id="0xc0001af180" class="node">
<title>Node_0xc0001af180</title>
<path fill="#ffffff" stroke="#000000" d="M797.0313,-515.3379C797.0313,-515.3379 867.2383,-515.3379 867.2383,-515.3379 873.2383,-515.3379 879.2383,-521.3379 879.2383,-527.3379 879.2383,-527.3379 879.2383,-557.3379 879.2383,-557.3379 879.2383,-563.3379 873.2383,-569.3379 867.2383,-569.3379 867.2383,-569.3379 797.0313,-569.3379 797.0313,-569.3379 791.0313,-569.3379 785.0313,-563.3379 785.0313,-557.3379 785.0313,-557.3379 785.0313,-527.3379 785.0313,-527.3379 785.0313,-521.3379 791.0313,-515.3379 797.0313,-515.3379"/>
<text text-anchor="middle" x="814.1348" y="-557.3379" font-family="Times,serif" font-size="10.00" fill="#000000">tanh(%25)</text>
<polyline fill="none" stroke="#000000" points="843.2383,-551.3379 843.2383,-569.3379 "/>
<text text-anchor="middle" x="861.2383" y="-557.3379" font-family="Times,serif" font-size="10.00" fill="#000000">0x26</text>
<polyline fill="none" stroke="#000000" points="785.0313,-551.3379 879.2383,-551.3379 "/>
<text text-anchor="middle" x="807.1421" y="-539.3379" font-family="Times,serif" font-size="10.00" fill="#000000">Op</text>
<polyline fill="none" stroke="#000000" points="829.2529,-533.3379 829.2529,-551.3379 "/>
<text text-anchor="middle" x="853.8613" y="-539.3379" font-family="Times,serif" font-size="10.00" fill="#000000">tanh</text>
<polyline fill="none" stroke="#000000" points="785.0313,-533.3379 879.2383,-533.3379 "/>
<text text-anchor="middle" x="811.7505" y="-521.3379" font-family="Times,serif" font-size="10.00" fill="#000000">Shape</text>
<polyline fill="none" stroke="#000000" points="838.4697,-515.3379 838.4697,-533.3379 "/>
<text text-anchor="middle" x="858.7998" y="-521.3379" font-family="Times,serif" font-size="10.00" fill="#000000">(5)</text>
</g>
<!-- Node_0xc0001af180&#45;&gt;Node_0xc0001af0a0 -->
<g id="edge43" class="edge">
<title>Node_0xc0001af180&#45;&gt;Node_0xc0001af0a0</title>
<path fill="none" stroke="#000000" d="M825.0599,-515.1554C824.3279,-512.3431 823.5754,-509.4518 822.8213,-506.5544"/>
<polygon fill="#000000" stroke="#000000" points="826.185,-505.5825 820.2789,-496.7866 819.4107,-507.3457 826.185,-505.5825"/>
</g>
<!-- Node_0xc0001af260 -->
<g id="0xc0001af260" class="node">
<title>Node_0xc0001af260</title>
<path fill="#ffffff" stroke="#000000" d="M844.5054,-588.3379C844.5054,-588.3379 937.7642,-588.3379 937.7642,-588.3379 943.7642,-588.3379 949.7642,-594.3379 949.7642,-600.3379 949.7642,-600.3379 949.7642,-631.3145 949.7642,-631.3145 949.7642,-637.3145 943.7642,-643.3145 937.7642,-643.3145 937.7642,-643.3145 844.5054,-643.3145 844.5054,-643.3145 838.5054,-643.3145 832.5054,-637.3145 832.5054,-631.3145 832.5054,-631.3145 832.5054,-600.3379 832.5054,-600.3379 832.5054,-594.3379 838.5054,-588.3379 844.5054,-588.3379"/>
<text text-anchor="middle" x="873.1348" y="-631.3145" font-family="Times,serif" font-size="10.00" fill="#000000">a ⋅ b(%1d, %26)</text>
<polyline fill="none" stroke="#000000" points="913.7642,-624.8262 913.7642,-643.3145 "/>
<text text-anchor="middle" x="931.7642" y="-631.0703" font-family="Times,serif" font-size="10.00" fill="#000000">0x27</text>
<polyline fill="none" stroke="#000000" points="832.5054,-624.8262 949.7642,-624.8262 "/>
<text text-anchor="middle" x="860.6162" y="-612.582" font-family="Times,serif" font-size="10.00" fill="#000000">Op</text>
<polyline fill="none" stroke="#000000" points="888.7271,-606.3379 888.7271,-624.8262 "/>
<text text-anchor="middle" x="919.1963" y="-612.8262" font-family="Times,serif" font-size="10.00" fill="#000000">a ⋅ b</text>
<polyline fill="none" stroke="#000000" points="832.5054,-606.3379 949.7642,-606.3379 "/>
<text text-anchor="middle" x="866.2246" y="-594.3379" font-family="Times,serif" font-size="10.00" fill="#000000">Shape</text>
<polyline fill="none" stroke="#000000" points="899.9438,-588.3379 899.9438,-606.3379 "/>
<text text-anchor="middle" x="924.7739" y="-594.3379" font-family="Times,serif" font-size="10.00" fill="#000000">()</text>
</g>
<!-- Node_0xc0001af260&#45;&gt;Node_0xc0001ae9a0 -->
<g id="edge44" class="edge">
<title>Node_0xc0001af260&#45;&gt;Node_0xc0001ae9a0</title>
<path fill="none" stroke="#000000" d="M928.2804,-588.2528C933.8099,-584.1482 939.5591,-579.8805 945.2274,-575.6729"/>
<polygon fill="#000000" stroke="#000000" points="947.4955,-578.3482 953.439,-569.5774 943.3232,-572.7275 947.4955,-578.3482"/>
</g>
<!-- Node_0xc0001af260&#45;&gt;Node_0xc0001af180 -->
<g id="edge45" class="edge">
<title>Node_0xc0001af260&#45;&gt;Node_0xc0001af180</title>
<path fill="none" stroke="#000000" d="M868.8294,-588.0434C866.1128,-584.6596 863.3094,-581.1679 860.5194,-577.6928"/>
<polygon fill="#000000" stroke="#000000" points="863.0704,-575.2795 854.0806,-569.6728 857.6119,-579.6619 863.0704,-575.2795"/>
</g>
</g>
</svg>
